<?xml version="1.0" encoding="utf-8" standalone="no"?>
<!DOCTYPE svg PUBLIC "-//W3C//DTD SVG 1.1//EN"
  "http://www.w3.org/Graphics/SVG/1.1/DTD/svg11.dtd">
<svg xmlns:xlink="http://www.w3.org/1999/xlink" width="844.665112pt" height="703.57925pt" viewBox="0 0 844.665112 703.57925" xmlns="http://www.w3.org/2000/svg" version="1.1">
 <metadata>
  <rdf:RDF xmlns:dc="http://purl.org/dc/elements/1.1/" xmlns:cc="http://creativecommons.org/ns#" xmlns:rdf="http://www.w3.org/1999/02/22-rdf-syntax-ns#">
   <cc:Work>
    <dc:type rdf:resource="http://purl.org/dc/dcmitype/StillImage"/>
    <dc:date>2025-12-05T08:30:43.022197</dc:date>
    <dc:format>image/svg+xml</dc:format>
    <dc:creator>
     <cc:Agent>
      <dc:title>Matplotlib v3.10.7, https://matplotlib.org/</dc:title>
     </cc:Agent>
    </dc:creator>
   </cc:Work>
  </rdf:RDF>
 </metadata>
 <defs>
  <style type="text/css">*{stroke-linejoin: round; stroke-linecap: butt}</style>
 </defs>
 <g id="figure_1">
  <g id="patch_1">
   <path d="M 0 703.57925 
L 844.665112 703.57925 
L 844.665112 -0 
L 0 -0 
z
" style="fill: #ffffff"/>
  </g>
  <g id="axes_1">
   <g id="patch_2">
    <path d="M 659.252562 371.54625 
C 659.252562 331.447497 651.353983 291.738654 636.008854 254.692238 
C 620.663726 217.645821 598.170473 183.982289 569.816373 155.628189 
C 541.462273 127.274089 507.798742 104.780837 470.752325 89.435708 
C 433.705908 74.09058 393.997065 66.192 353.898312 66.192 
C 313.79956 66.192 274.090717 74.09058 237.0443 89.435708 
C 199.997883 104.780837 166.334352 127.274089 137.980252 155.628189 
C 109.626152 183.982289 87.132899 217.645821 71.787771 254.692238 
C 56.442642 291.738654 48.544063 331.447497 48.544063 371.54625 
C 48.544063 411.645003 56.442642 451.353846 71.787771 488.400262 
C 87.132899 525.446679 109.626152 559.110211 137.980252 587.464311 
C 166.334352 615.818411 199.997883 638.311663 237.0443 653.656792 
C 274.090717 669.00192 313.79956 676.9005 353.898312 676.9005 
C 393.997065 676.9005 433.705908 669.00192 470.752325 653.656792 
C 507.798742 638.311663 541.462273 615.818411 569.816373 587.464311 
C 598.170473 559.110211 620.663726 525.446679 636.008854 488.400262 
C 651.353983 451.353846 659.252562 411.645003 659.252562 371.54625 
M 353.898312 371.54625 
C 353.898312 371.54625 353.898312 371.54625 353.898312 371.54625 
C 353.898312 371.54625 353.898312 371.54625 353.898312 371.54625 
C 353.898312 371.54625 353.898312 371.54625 353.898312 371.54625 
C 353.898312 371.54625 353.898312 371.54625 353.898312 371.54625 
C 353.898312 371.54625 353.898312 371.54625 353.898312 371.54625 
C 353.898312 371.54625 353.898312 371.54625 353.898312 371.54625 
C 353.898312 371.54625 353.898312 371.54625 353.898312 371.54625 
C 353.898312 371.54625 353.898312 371.54625 353.898312 371.54625 
C 353.898312 371.54625 353.898312 371.54625 353.898312 371.54625 
C 353.898312 371.54625 353.898312 371.54625 353.898312 371.54625 
C 353.898312 371.54625 353.898312 371.54625 353.898312 371.54625 
C 353.898312 371.54625 353.898312 371.54625 353.898312 371.54625 
C 353.898312 371.54625 353.898312 371.54625 353.898312 371.54625 
C 353.898312 371.54625 353.898312 371.54625 353.898312 371.54625 
C 353.898312 371.54625 353.898312 371.54625 353.898312 371.54625 
C 353.898312 371.54625 353.898312 371.54625 353.898312 371.54625 
z
" style="fill: #eaeaf2"/>
   </g>
   <g id="matplotlib.axis_1">
    <g id="xtick_1">
     <g id="line2d_1">
      <path d="M 353.898312 371.54625 
L 659.252562 371.54625 
" clip-path="url(#pc6f85b8f1d)" style="fill: none; stroke: #ffffff; stroke-opacity: 0.3; stroke-linecap: round"/>
     </g>
     <g id="text_1">
      <!-- Richness -->
      <g style="fill: #262626" transform="translate(646.576937 374.656875) scale(0.12 -0.12)">
       <defs>
        <path id="Arial-BoldMT-52" d="M 469 0 
L 469 4581 
L 2416 4581 
Q 3150 4581 3483 4457 
Q 3816 4334 4016 4018 
Q 4216 3703 4216 3297 
Q 4216 2781 3912 2445 
Q 3609 2109 3006 2022 
Q 3306 1847 3501 1637 
Q 3697 1428 4028 894 
L 4588 0 
L 3481 0 
L 2813 997 
Q 2456 1531 2325 1670 
Q 2194 1809 2047 1861 
Q 1900 1913 1581 1913 
L 1394 1913 
L 1394 0 
L 469 0 
z
M 1394 2644 
L 2078 2644 
Q 2744 2644 2909 2700 
Q 3075 2756 3169 2893 
Q 3263 3031 3263 3238 
Q 3263 3469 3139 3611 
Q 3016 3753 2791 3791 
Q 2678 3806 2116 3806 
L 1394 3806 
L 1394 2644 
z
" transform="scale(0.015625)"/>
        <path id="Arial-BoldMT-69" d="M 459 3769 
L 459 4581 
L 1338 4581 
L 1338 3769 
L 459 3769 
z
M 459 0 
L 459 3319 
L 1338 3319 
L 1338 0 
L 459 0 
z
" transform="scale(0.015625)"/>
        <path id="Arial-BoldMT-63" d="M 3353 2338 
L 2488 2181 
Q 2444 2441 2289 2572 
Q 2134 2703 1888 2703 
Q 1559 2703 1364 2476 
Q 1169 2250 1169 1719 
Q 1169 1128 1367 884 
Q 1566 641 1900 641 
Q 2150 641 2309 783 
Q 2469 925 2534 1272 
L 3397 1125 
Q 3263 531 2881 228 
Q 2500 -75 1859 -75 
Q 1131 -75 698 384 
Q 266 844 266 1656 
Q 266 2478 700 2936 
Q 1134 3394 1875 3394 
Q 2481 3394 2839 3133 
Q 3197 2872 3353 2338 
z
" transform="scale(0.015625)"/>
        <path id="Arial-BoldMT-68" d="M 1334 4581 
L 1334 2897 
Q 1759 3394 2350 3394 
Q 2653 3394 2897 3281 
Q 3141 3169 3264 2994 
Q 3388 2819 3433 2606 
Q 3478 2394 3478 1947 
L 3478 0 
L 2600 0 
L 2600 1753 
Q 2600 2275 2550 2415 
Q 2500 2556 2373 2639 
Q 2247 2722 2056 2722 
Q 1838 2722 1666 2615 
Q 1494 2509 1414 2295 
Q 1334 2081 1334 1663 
L 1334 0 
L 456 0 
L 456 4581 
L 1334 4581 
z
" transform="scale(0.015625)"/>
        <path id="Arial-BoldMT-6e" d="M 3478 0 
L 2600 0 
L 2600 1694 
Q 2600 2231 2544 2389 
Q 2488 2547 2361 2634 
Q 2234 2722 2056 2722 
Q 1828 2722 1647 2597 
Q 1466 2472 1398 2265 
Q 1331 2059 1331 1503 
L 1331 0 
L 453 0 
L 453 3319 
L 1269 3319 
L 1269 2831 
Q 1703 3394 2363 3394 
Q 2653 3394 2893 3289 
Q 3134 3184 3257 3021 
Q 3381 2859 3429 2653 
Q 3478 2447 3478 2063 
L 3478 0 
z
" transform="scale(0.015625)"/>
        <path id="Arial-BoldMT-65" d="M 2381 1056 
L 3256 909 
Q 3088 428 2723 176 
Q 2359 -75 1813 -75 
Q 947 -75 531 491 
Q 203 944 203 1634 
Q 203 2459 634 2926 
Q 1066 3394 1725 3394 
Q 2466 3394 2894 2905 
Q 3322 2416 3303 1406 
L 1103 1406 
Q 1113 1016 1316 798 
Q 1519 581 1822 581 
Q 2028 581 2168 693 
Q 2309 806 2381 1056 
z
M 2431 1944 
Q 2422 2325 2234 2523 
Q 2047 2722 1778 2722 
Q 1491 2722 1303 2513 
Q 1116 2303 1119 1944 
L 2431 1944 
z
" transform="scale(0.015625)"/>
        <path id="Arial-BoldMT-73" d="M 150 947 
L 1031 1081 
Q 1088 825 1259 692 
Q 1431 559 1741 559 
Q 2081 559 2253 684 
Q 2369 772 2369 919 
Q 2369 1019 2306 1084 
Q 2241 1147 2013 1200 
Q 950 1434 666 1628 
Q 272 1897 272 2375 
Q 272 2806 612 3100 
Q 953 3394 1669 3394 
Q 2350 3394 2681 3172 
Q 3013 2950 3138 2516 
L 2309 2363 
Q 2256 2556 2107 2659 
Q 1959 2763 1684 2763 
Q 1338 2763 1188 2666 
Q 1088 2597 1088 2488 
Q 1088 2394 1175 2328 
Q 1294 2241 1995 2081 
Q 2697 1922 2975 1691 
Q 3250 1456 3250 1038 
Q 3250 581 2869 253 
Q 2488 -75 1741 -75 
Q 1063 -75 667 200 
Q 272 475 150 947 
z
" transform="scale(0.015625)"/>
       </defs>
       <use xlink:href="#Arial-BoldMT-52"/>
       <use xlink:href="#Arial-BoldMT-69" transform="translate(72.216797 0)"/>
       <use xlink:href="#Arial-BoldMT-63" transform="translate(100 0)"/>
       <use xlink:href="#Arial-BoldMT-68" transform="translate(155.615234 0)"/>
       <use xlink:href="#Arial-BoldMT-6e" transform="translate(216.699219 0)"/>
       <use xlink:href="#Arial-BoldMT-65" transform="translate(277.783203 0)"/>
       <use xlink:href="#Arial-BoldMT-73" transform="translate(333.398438 0)"/>
       <use xlink:href="#Arial-BoldMT-73" transform="translate(389.013672 0)"/>
      </g>
     </g>
    </g>
    <g id="xtick_2">
     <g id="line2d_2">
      <path d="M 353.898312 371.54625 
L 353.898312 66.192 
" clip-path="url(#pc6f85b8f1d)" style="fill: none; stroke: #ffffff; stroke-opacity: 0.3; stroke-linecap: round"/>
     </g>
     <g id="text_2">
      <!-- Sweetness -->
      <g style="fill: #262626" transform="translate(322.883937 55.302625) scale(0.12 -0.12)">
       <defs>
        <path id="Arial-BoldMT-53" d="M 231 1491 
L 1131 1578 
Q 1213 1125 1461 912 
Q 1709 700 2131 700 
Q 2578 700 2804 889 
Q 3031 1078 3031 1331 
Q 3031 1494 2936 1608 
Q 2841 1722 2603 1806 
Q 2441 1863 1863 2006 
Q 1119 2191 819 2459 
Q 397 2838 397 3381 
Q 397 3731 595 4036 
Q 794 4341 1167 4500 
Q 1541 4659 2069 4659 
Q 2931 4659 3367 4281 
Q 3803 3903 3825 3272 
L 2900 3231 
Q 2841 3584 2645 3739 
Q 2450 3894 2059 3894 
Q 1656 3894 1428 3728 
Q 1281 3622 1281 3444 
Q 1281 3281 1419 3166 
Q 1594 3019 2269 2859 
Q 2944 2700 3267 2529 
Q 3591 2359 3773 2064 
Q 3956 1769 3956 1334 
Q 3956 941 3737 597 
Q 3519 253 3119 86 
Q 2719 -81 2122 -81 
Q 1253 -81 787 320 
Q 322 722 231 1491 
z
" transform="scale(0.015625)"/>
        <path id="Arial-BoldMT-77" d="M 1078 0 
L 28 3319 
L 881 3319 
L 1503 1144 
L 2075 3319 
L 2922 3319 
L 3475 1144 
L 4109 3319 
L 4975 3319 
L 3909 0 
L 3066 0 
L 2494 2134 
L 1931 0 
L 1078 0 
z
" transform="scale(0.015625)"/>
        <path id="Arial-BoldMT-74" d="M 1981 3319 
L 1981 2619 
L 1381 2619 
L 1381 1281 
Q 1381 875 1398 808 
Q 1416 741 1477 697 
Q 1538 653 1625 653 
Q 1747 653 1978 738 
L 2053 56 
Q 1747 -75 1359 -75 
Q 1122 -75 931 4 
Q 741 84 652 211 
Q 563 338 528 553 
Q 500 706 500 1172 
L 500 2619 
L 97 2619 
L 97 3319 
L 500 3319 
L 500 3978 
L 1381 4491 
L 1381 3319 
L 1981 3319 
z
" transform="scale(0.015625)"/>
       </defs>
       <use xlink:href="#Arial-BoldMT-53"/>
       <use xlink:href="#Arial-BoldMT-77" transform="translate(66.699219 0)"/>
       <use xlink:href="#Arial-BoldMT-65" transform="translate(144.482422 0)"/>
       <use xlink:href="#Arial-BoldMT-65" transform="translate(200.097656 0)"/>
       <use xlink:href="#Arial-BoldMT-74" transform="translate(255.712891 0)"/>
       <use xlink:href="#Arial-BoldMT-6e" transform="translate(289.013672 0)"/>
       <use xlink:href="#Arial-BoldMT-65" transform="translate(350.097656 0)"/>
       <use xlink:href="#Arial-BoldMT-73" transform="translate(405.712891 0)"/>
       <use xlink:href="#Arial-BoldMT-73" transform="translate(461.328125 0)"/>
      </g>
     </g>
    </g>
    <g id="xtick_3">
     <g id="line2d_3">
      <path d="M 353.898312 371.54625 
L 48.544062 371.54625 
" clip-path="url(#pc6f85b8f1d)" style="fill: none; stroke: #ffffff; stroke-opacity: 0.3; stroke-linecap: round"/>
     </g>
     <g id="text_3">
      <!-- Creativity -->
      <g style="fill: #262626" transform="translate(7.2 374.65125) scale(0.12 -0.12)">
       <defs>
        <path id="Arial-BoldMT-43" d="M 3397 1684 
L 4294 1400 
Q 4088 650 3608 286 
Q 3128 -78 2391 -78 
Q 1478 -78 890 545 
Q 303 1169 303 2250 
Q 303 3394 893 4026 
Q 1484 4659 2447 4659 
Q 3288 4659 3813 4163 
Q 4125 3869 4281 3319 
L 3366 3100 
Q 3284 3456 3026 3662 
Q 2769 3869 2400 3869 
Q 1891 3869 1573 3503 
Q 1256 3138 1256 2319 
Q 1256 1450 1568 1081 
Q 1881 713 2381 713 
Q 2750 713 3015 947 
Q 3281 1181 3397 1684 
z
" transform="scale(0.015625)"/>
        <path id="Arial-BoldMT-72" d="M 1300 0 
L 422 0 
L 422 3319 
L 1238 3319 
L 1238 2847 
Q 1447 3181 1614 3287 
Q 1781 3394 1994 3394 
Q 2294 3394 2572 3228 
L 2300 2463 
Q 2078 2606 1888 2606 
Q 1703 2606 1575 2504 
Q 1447 2403 1373 2137 
Q 1300 1872 1300 1025 
L 1300 0 
z
" transform="scale(0.015625)"/>
        <path id="Arial-BoldMT-61" d="M 1116 2306 
L 319 2450 
Q 453 2931 781 3162 
Q 1109 3394 1756 3394 
Q 2344 3394 2631 3255 
Q 2919 3116 3036 2902 
Q 3153 2688 3153 2116 
L 3144 1091 
Q 3144 653 3186 445 
Q 3228 238 3344 0 
L 2475 0 
Q 2441 88 2391 259 
Q 2369 338 2359 363 
Q 2134 144 1878 34 
Q 1622 -75 1331 -75 
Q 819 -75 523 203 
Q 228 481 228 906 
Q 228 1188 362 1408 
Q 497 1628 739 1745 
Q 981 1863 1438 1950 
Q 2053 2066 2291 2166 
L 2291 2253 
Q 2291 2506 2166 2614 
Q 2041 2722 1694 2722 
Q 1459 2722 1328 2630 
Q 1197 2538 1116 2306 
z
M 2291 1594 
Q 2122 1538 1756 1459 
Q 1391 1381 1278 1306 
Q 1106 1184 1106 997 
Q 1106 813 1243 678 
Q 1381 544 1594 544 
Q 1831 544 2047 700 
Q 2206 819 2256 991 
Q 2291 1103 2291 1419 
L 2291 1594 
z
" transform="scale(0.015625)"/>
        <path id="Arial-BoldMT-76" d="M 1372 0 
L 34 3319 
L 956 3319 
L 1581 1625 
L 1763 1059 
Q 1834 1275 1853 1344 
Q 1897 1484 1947 1625 
L 2578 3319 
L 3481 3319 
L 2163 0 
L 1372 0 
z
" transform="scale(0.015625)"/>
        <path id="Arial-BoldMT-79" d="M 44 3319 
L 978 3319 
L 1772 963 
L 2547 3319 
L 3456 3319 
L 2284 125 
L 2075 -453 
Q 1959 -744 1854 -897 
Q 1750 -1050 1614 -1145 
Q 1478 -1241 1279 -1294 
Q 1081 -1347 831 -1347 
Q 578 -1347 334 -1294 
L 256 -606 
Q 463 -647 628 -647 
Q 934 -647 1081 -467 
Q 1228 -288 1306 -9 
L 44 3319 
z
" transform="scale(0.015625)"/>
       </defs>
       <use xlink:href="#Arial-BoldMT-43"/>
       <use xlink:href="#Arial-BoldMT-72" transform="translate(72.216797 0)"/>
       <use xlink:href="#Arial-BoldMT-65" transform="translate(111.132812 0)"/>
       <use xlink:href="#Arial-BoldMT-61" transform="translate(166.748047 0)"/>
       <use xlink:href="#Arial-BoldMT-74" transform="translate(222.363281 0)"/>
       <use xlink:href="#Arial-BoldMT-69" transform="translate(255.664062 0)"/>
       <use xlink:href="#Arial-BoldMT-76" transform="translate(283.447266 0)"/>
       <use xlink:href="#Arial-BoldMT-69" transform="translate(339.0625 0)"/>
       <use xlink:href="#Arial-BoldMT-74" transform="translate(366.845703 0)"/>
       <use xlink:href="#Arial-BoldMT-79" transform="translate(400.146484 0)"/>
      </g>
     </g>
    </g>
    <g id="xtick_4">
     <g id="line2d_4">
      <path d="M 353.898312 371.54625 
L 353.898312 676.9005 
" clip-path="url(#pc6f85b8f1d)" style="fill: none; stroke: #ffffff; stroke-opacity: 0.3; stroke-linecap: round"/>
     </g>
     <g id="text_4">
      <!-- Presentation -->
      <g style="fill: #262626" transform="translate(317.558 694.011125) scale(0.12 -0.12)">
       <defs>
        <path id="Arial-BoldMT-50" d="M 466 0 
L 466 4581 
L 1950 4581 
Q 2794 4581 3050 4513 
Q 3444 4409 3709 4064 
Q 3975 3719 3975 3172 
Q 3975 2750 3822 2462 
Q 3669 2175 3433 2011 
Q 3197 1847 2953 1794 
Q 2622 1728 1994 1728 
L 1391 1728 
L 1391 0 
L 466 0 
z
M 1391 3806 
L 1391 2506 
L 1897 2506 
Q 2444 2506 2628 2578 
Q 2813 2650 2917 2803 
Q 3022 2956 3022 3159 
Q 3022 3409 2875 3571 
Q 2728 3734 2503 3775 
Q 2338 3806 1838 3806 
L 1391 3806 
z
" transform="scale(0.015625)"/>
        <path id="Arial-BoldMT-6f" d="M 256 1706 
Q 256 2144 472 2553 
Q 688 2963 1083 3178 
Q 1478 3394 1966 3394 
Q 2719 3394 3200 2905 
Q 3681 2416 3681 1669 
Q 3681 916 3195 420 
Q 2709 -75 1972 -75 
Q 1516 -75 1102 131 
Q 688 338 472 736 
Q 256 1134 256 1706 
z
M 1156 1659 
Q 1156 1166 1390 903 
Q 1625 641 1969 641 
Q 2313 641 2545 903 
Q 2778 1166 2778 1666 
Q 2778 2153 2545 2415 
Q 2313 2678 1969 2678 
Q 1625 2678 1390 2415 
Q 1156 2153 1156 1659 
z
" transform="scale(0.015625)"/>
       </defs>
       <use xlink:href="#Arial-BoldMT-50"/>
       <use xlink:href="#Arial-BoldMT-72" transform="translate(66.699219 0)"/>
       <use xlink:href="#Arial-BoldMT-65" transform="translate(105.615234 0)"/>
       <use xlink:href="#Arial-BoldMT-73" transform="translate(161.230469 0)"/>
       <use xlink:href="#Arial-BoldMT-65" transform="translate(216.845703 0)"/>
       <use xlink:href="#Arial-BoldMT-6e" transform="translate(272.460938 0)"/>
       <use xlink:href="#Arial-BoldMT-74" transform="translate(333.544922 0)"/>
       <use xlink:href="#Arial-BoldMT-61" transform="translate(366.845703 0)"/>
       <use xlink:href="#Arial-BoldMT-74" transform="translate(422.460938 0)"/>
       <use xlink:href="#Arial-BoldMT-69" transform="translate(455.761719 0)"/>
       <use xlink:href="#Arial-BoldMT-6f" transform="translate(483.544922 0)"/>
       <use xlink:href="#Arial-BoldMT-6e" transform="translate(544.628906 0)"/>
      </g>
     </g>
    </g>
   </g>
   <g id="matplotlib.axis_2">
    <g id="ytick_1">
     <g id="line2d_5">
      <path d="M 414.969162 371.54625 
C 414.969162 363.526499 413.389447 355.584731 410.320421 348.175448 
C 407.251395 340.766164 402.752745 334.033458 397.081925 328.362638 
C 391.411105 322.691818 384.678398 318.193167 377.269115 315.124142 
C 369.859832 312.055116 361.918063 310.4754 353.898312 310.4754 
C 345.878562 310.4754 337.936793 312.055116 330.52751 315.124142 
C 323.118227 318.193167 316.38552 322.691818 310.7147 328.362638 
C 305.04388 334.033458 300.54523 340.766164 297.476204 348.175448 
C 294.407178 355.584731 292.827462 363.526499 292.827462 371.54625 
C 292.827462 379.566001 294.407178 387.507769 297.476204 394.917052 
C 300.54523 402.326336 305.04388 409.059042 310.7147 414.729862 
C 316.38552 420.400682 323.118227 424.899333 330.52751 427.968358 
C 337.936793 431.037384 345.878562 432.6171 353.898312 432.6171 
C 361.918063 432.6171 369.859832 431.037384 377.269115 427.968358 
C 384.678398 424.899333 391.411105 420.400682 397.081925 414.729862 
C 402.752745 409.059042 407.251395 402.326336 410.320421 394.917052 
C 413.389447 387.507769 414.969162 379.566001 414.969162 371.54625 
" clip-path="url(#pc6f85b8f1d)" style="fill: none; stroke: #ffffff; stroke-opacity: 0.3; stroke-linecap: round"/>
     </g>
     <g id="text_5">
      <!-- 2 -->
      <g style="fill: #262626" transform="translate(410.320421 346.187948) scale(0.1 -0.1)">
       <defs>
        <path id="ArialMT-32" d="M 3222 541 
L 3222 0 
L 194 0 
Q 188 203 259 391 
Q 375 700 629 1000 
Q 884 1300 1366 1694 
Q 2113 2306 2375 2664 
Q 2638 3022 2638 3341 
Q 2638 3675 2398 3904 
Q 2159 4134 1775 4134 
Q 1369 4134 1125 3890 
Q 881 3647 878 3216 
L 300 3275 
Q 359 3922 746 4261 
Q 1134 4600 1788 4600 
Q 2447 4600 2831 4234 
Q 3216 3869 3216 3328 
Q 3216 3053 3103 2787 
Q 2991 2522 2730 2228 
Q 2469 1934 1863 1422 
Q 1356 997 1212 845 
Q 1069 694 975 541 
L 3222 541 
z
" transform="scale(0.015625)"/>
       </defs>
       <use xlink:href="#ArialMT-32"/>
      </g>
     </g>
    </g>
    <g id="ytick_2">
     <g id="line2d_6">
      <path d="M 476.040012 371.54625 
C 476.040012 355.506749 472.880581 339.623212 466.742529 324.804645 
C 460.604478 309.986078 451.607177 296.520666 440.265537 285.179026 
C 428.923897 273.837386 415.458484 264.840085 400.639917 258.702033 
C 385.821351 252.563982 369.937814 249.40455 353.898312 249.40455 
C 337.858811 249.40455 321.975274 252.563982 307.156708 258.702033 
C 292.338141 264.840085 278.872728 273.837386 267.531088 285.179026 
C 256.189448 296.520666 247.192147 309.986078 241.054096 324.804645 
C 234.916044 339.623212 231.756612 355.506749 231.756612 371.54625 
C 231.756612 387.585751 234.916044 403.469288 241.054096 418.287855 
C 247.192147 433.106422 256.189448 446.571834 267.531088 457.913474 
C 278.872728 469.255114 292.338141 478.252415 307.156708 484.390467 
C 321.975274 490.528518 337.858811 493.68795 353.898312 493.68795 
C 369.937814 493.68795 385.821351 490.528518 400.639917 484.390467 
C 415.458484 478.252415 428.923897 469.255114 440.265537 457.913474 
C 451.607177 446.571834 460.604478 433.106422 466.742529 418.287855 
C 472.880581 403.469288 476.040012 387.585751 476.040012 371.54625 
" clip-path="url(#pc6f85b8f1d)" style="fill: none; stroke: #ffffff; stroke-opacity: 0.3; stroke-linecap: round"/>
     </g>
     <g id="text_6">
      <!-- 4 -->
      <g style="fill: #262626" transform="translate(466.742529 322.817145) scale(0.1 -0.1)">
       <defs>
        <path id="ArialMT-34" d="M 2069 0 
L 2069 1097 
L 81 1097 
L 81 1613 
L 2172 4581 
L 2631 4581 
L 2631 1613 
L 3250 1613 
L 3250 1097 
L 2631 1097 
L 2631 0 
L 2069 0 
z
M 2069 1613 
L 2069 3678 
L 634 1613 
L 2069 1613 
z
" transform="scale(0.015625)"/>
       </defs>
       <use xlink:href="#ArialMT-34"/>
      </g>
     </g>
    </g>
    <g id="ytick_3">
     <g id="line2d_7">
      <path d="M 537.110862 371.54625 
C 537.110862 347.486998 532.371715 323.661693 523.164638 301.433843 
C 513.957561 279.205992 500.461609 259.007873 483.449149 241.995413 
C 466.436689 224.982954 446.23857 211.487002 424.01072 202.279925 
C 401.78287 193.072848 377.957564 188.3337 353.898312 188.3337 
C 329.839061 188.3337 306.013755 193.072848 283.785905 202.279925 
C 261.558055 211.487002 241.359936 224.982954 224.347476 241.995413 
C 207.335016 259.007873 193.839064 279.205992 184.631987 301.433843 
C 175.42491 323.661693 170.685762 347.486998 170.685762 371.54625 
C 170.685762 395.605502 175.42491 419.430807 184.631987 441.658657 
C 193.839064 463.886508 207.335016 484.084627 224.347476 501.097087 
C 241.359936 518.109546 261.558055 531.605498 283.785905 540.812575 
C 306.013755 550.019652 329.839061 554.7588 353.898312 554.7588 
C 377.957564 554.7588 401.78287 550.019652 424.01072 540.812575 
C 446.23857 531.605498 466.436689 518.109546 483.449149 501.097087 
C 500.461609 484.084627 513.957561 463.886508 523.164638 441.658657 
C 532.371715 419.430807 537.110862 395.605502 537.110862 371.54625 
" clip-path="url(#pc6f85b8f1d)" style="fill: none; stroke: #ffffff; stroke-opacity: 0.3; stroke-linecap: round"/>
     </g>
     <g id="text_7">
      <!-- 6 -->
      <g style="fill: #262626" transform="translate(523.164638 299.446343) scale(0.1 -0.1)">
       <defs>
        <path id="ArialMT-36" d="M 3184 3459 
L 2625 3416 
Q 2550 3747 2413 3897 
Q 2184 4138 1850 4138 
Q 1581 4138 1378 3988 
Q 1113 3794 959 3422 
Q 806 3050 800 2363 
Q 1003 2672 1297 2822 
Q 1591 2972 1913 2972 
Q 2475 2972 2870 2558 
Q 3266 2144 3266 1488 
Q 3266 1056 3080 686 
Q 2894 316 2569 119 
Q 2244 -78 1831 -78 
Q 1128 -78 684 439 
Q 241 956 241 2144 
Q 241 3472 731 4075 
Q 1159 4600 1884 4600 
Q 2425 4600 2770 4297 
Q 3116 3994 3184 3459 
z
M 888 1484 
Q 888 1194 1011 928 
Q 1134 663 1356 523 
Q 1578 384 1822 384 
Q 2178 384 2434 671 
Q 2691 959 2691 1453 
Q 2691 1928 2437 2201 
Q 2184 2475 1800 2475 
Q 1419 2475 1153 2201 
Q 888 1928 888 1484 
z
" transform="scale(0.015625)"/>
       </defs>
       <use xlink:href="#ArialMT-36"/>
      </g>
     </g>
    </g>
    <g id="ytick_4">
     <g id="line2d_8">
      <path d="M 598.181712 371.54625 
C 598.181712 339.467248 591.862849 307.700174 579.586746 278.06304 
C 567.310643 248.425906 549.316041 221.495081 526.632761 198.811801 
C 503.949481 176.128521 477.018656 158.133919 447.381522 145.857817 
C 417.744389 133.581714 385.977315 127.26285 353.898312 127.26285 
C 321.81931 127.26285 290.052236 133.581714 260.415103 145.857817 
C 230.777969 158.133919 203.847144 176.128521 181.163864 198.811801 
C 158.480584 221.495081 140.485982 248.425906 128.209879 278.06304 
C 115.933776 307.700174 109.614912 339.467248 109.614912 371.54625 
C 109.614912 403.625252 115.933776 435.392326 128.209879 465.02946 
C 140.485982 494.666594 158.480584 521.597419 181.163864 544.280699 
C 203.847144 566.963979 230.777969 584.958581 260.415103 597.234683 
C 290.052236 609.510786 321.81931 615.82965 353.898312 615.82965 
C 385.977315 615.82965 417.744389 609.510786 447.381522 597.234683 
C 477.018656 584.958581 503.949481 566.963979 526.632761 544.280699 
C 549.316041 521.597419 567.310643 494.666594 579.586746 465.02946 
C 591.862849 435.392326 598.181712 403.625252 598.181712 371.54625 
" clip-path="url(#pc6f85b8f1d)" style="fill: none; stroke: #ffffff; stroke-opacity: 0.3; stroke-linecap: round"/>
     </g>
     <g id="text_8">
      <!-- 8 -->
      <g style="fill: #262626" transform="translate(579.586746 276.07554) scale(0.1 -0.1)">
       <defs>
        <path id="ArialMT-38" d="M 1131 2484 
Q 781 2613 612 2850 
Q 444 3088 444 3419 
Q 444 3919 803 4259 
Q 1163 4600 1759 4600 
Q 2359 4600 2725 4251 
Q 3091 3903 3091 3403 
Q 3091 3084 2923 2848 
Q 2756 2613 2416 2484 
Q 2838 2347 3058 2040 
Q 3278 1734 3278 1309 
Q 3278 722 2862 322 
Q 2447 -78 1769 -78 
Q 1091 -78 675 323 
Q 259 725 259 1325 
Q 259 1772 486 2073 
Q 713 2375 1131 2484 
z
M 1019 3438 
Q 1019 3113 1228 2906 
Q 1438 2700 1772 2700 
Q 2097 2700 2305 2904 
Q 2513 3109 2513 3406 
Q 2513 3716 2298 3927 
Q 2084 4138 1766 4138 
Q 1444 4138 1231 3931 
Q 1019 3725 1019 3438 
z
M 838 1322 
Q 838 1081 952 856 
Q 1066 631 1291 507 
Q 1516 384 1775 384 
Q 2178 384 2440 643 
Q 2703 903 2703 1303 
Q 2703 1709 2433 1975 
Q 2163 2241 1756 2241 
Q 1359 2241 1098 1978 
Q 838 1716 838 1322 
z
" transform="scale(0.015625)"/>
       </defs>
       <use xlink:href="#ArialMT-38"/>
      </g>
     </g>
    </g>
    <g id="ytick_5">
     <g id="line2d_9">
      <path d="M 659.252562 371.54625 
C 659.252562 331.447497 651.353983 291.738654 636.008854 254.692238 
C 620.663726 217.645821 598.170473 183.982289 569.816373 155.628189 
C 541.462273 127.274089 507.798742 104.780837 470.752325 89.435708 
C 433.705908 74.09058 393.997065 66.192 353.898312 66.192 
C 313.79956 66.192 274.090717 74.09058 237.0443 89.435708 
C 199.997883 104.780837 166.334352 127.274089 137.980252 155.628189 
C 109.626152 183.982289 87.132899 217.645821 71.787771 254.692238 
C 56.442642 291.738654 48.544062 331.447497 48.544062 371.54625 
C 48.544062 411.645003 56.442642 451.353846 71.787771 488.400262 
C 87.132899 525.446679 109.626152 559.110211 137.980252 587.464311 
C 166.334352 615.818411 199.997883 638.311663 237.0443 653.656792 
C 274.090717 669.00192 313.79956 676.9005 353.898312 676.9005 
C 393.997065 676.9005 433.705908 669.00192 470.752325 653.656792 
C 507.798742 638.311663 541.462273 615.818411 569.816373 587.464311 
C 598.170473 559.110211 620.663726 525.446679 636.008854 488.400262 
C 651.353983 451.353846 659.252562 411.645003 659.252562 371.54625 
" clip-path="url(#pc6f85b8f1d)" style="fill: none; stroke: #ffffff; stroke-opacity: 0.3; stroke-linecap: round"/>
     </g>
     <g id="text_9">
      <!-- 10 -->
      <g style="fill: #262626" transform="translate(636.008854 252.704738) scale(0.1 -0.1)">
       <defs>
        <path id="ArialMT-31" d="M 2384 0 
L 1822 0 
L 1822 3584 
Q 1619 3391 1289 3197 
Q 959 3003 697 2906 
L 697 3450 
Q 1169 3672 1522 3987 
Q 1875 4303 2022 4600 
L 2384 4600 
L 2384 0 
z
" transform="scale(0.015625)"/>
        <path id="ArialMT-30" d="M 266 2259 
Q 266 3072 433 3567 
Q 600 4063 929 4331 
Q 1259 4600 1759 4600 
Q 2128 4600 2406 4451 
Q 2684 4303 2865 4023 
Q 3047 3744 3150 3342 
Q 3253 2941 3253 2259 
Q 3253 1453 3087 958 
Q 2922 463 2592 192 
Q 2263 -78 1759 -78 
Q 1097 -78 719 397 
Q 266 969 266 2259 
z
M 844 2259 
Q 844 1131 1108 757 
Q 1372 384 1759 384 
Q 2147 384 2411 759 
Q 2675 1134 2675 2259 
Q 2675 3391 2411 3762 
Q 2147 4134 1753 4134 
Q 1366 4134 1134 3806 
Q 844 3388 844 2259 
z
" transform="scale(0.015625)"/>
       </defs>
       <use xlink:href="#ArialMT-31"/>
       <use xlink:href="#ArialMT-30" transform="translate(55.615234 0)"/>
      </g>
     </g>
    </g>
   </g>
   <g id="patch_3">
    <path d="M 598.181712 371.54625 
L 353.898312 188.3337 
L 231.756612 371.54625 
L 353.898312 585.294225 
z
" clip-path="url(#pc6f85b8f1d)" style="fill: #e74c3c; opacity: 0.1; stroke: #e74c3c; stroke-width: 0.3; stroke-linejoin: miter"/>
   </g>
   <g id="patch_4">
    <path d="M 567.646287 371.54625 
L 353.898312 218.869125 
L 79.079487 371.54625 
L 353.898312 615.82965 
z
" clip-path="url(#pc6f85b8f1d)" style="fill: #3498db; opacity: 0.1; stroke: #3498db; stroke-width: 0.3; stroke-linejoin: miter"/>
   </g>
   <g id="patch_5">
    <path d="M 537.110862 371.54625 
L 353.898312 96.727425 
L 140.150337 371.54625 
L 353.898312 646.365075 
z
" clip-path="url(#pc6f85b8f1d)" style="fill: #2ecc71; opacity: 0.1; stroke: #2ecc71; stroke-width: 0.3; stroke-linejoin: miter"/>
   </g>
   <g id="patch_6">
    <path d="M 628.717137 371.54625 
L 353.898312 127.26285 
L 170.685762 371.54625 
L 353.898312 585.294225 
z
" clip-path="url(#pc6f85b8f1d)" style="fill: #f39c12; opacity: 0.1; stroke: #f39c12; stroke-width: 0.3; stroke-linejoin: miter"/>
   </g>
   <g id="patch_7">
    <path d="M 659.252562 371.54625 
L 353.898312 218.869125 
L 109.614912 371.54625 
L 353.898312 676.9005 
z
" clip-path="url(#pc6f85b8f1d)" style="fill: #ffd700; opacity: 0.25; stroke: #ffd700; stroke-width: 0.3; stroke-linejoin: miter"/>
   </g>
   <g id="patch_8">
    <path d="M 506.575437 371.54625 
L 353.898312 66.192 
L 201.221187 371.54625 
L 353.898312 554.7588 
z
" clip-path="url(#pc6f85b8f1d)" style="fill: #1abc9c; opacity: 0.1; stroke: #1abc9c; stroke-width: 0.3; stroke-linejoin: miter"/>
   </g>
   <g id="patch_9">
    <path d="M 567.646287 371.54625 
L 353.898312 157.798275 
L 109.614912 371.54625 
L 353.898312 615.82965 
z
" clip-path="url(#pc6f85b8f1d)" style="fill: #e67e22; opacity: 0.1; stroke: #e67e22; stroke-width: 0.3; stroke-linejoin: miter"/>
   </g>
   <g id="patch_10">
    <path d="M 598.181712 371.54625 
L 353.898312 157.798275 
L 170.685762 371.54625 
L 353.898312 585.294225 
z
" clip-path="url(#pc6f85b8f1d)" style="fill: #95a5a6; opacity: 0.1; stroke: #95a5a6; stroke-width: 0.3; stroke-linejoin: miter"/>
   </g>
   <g id="line2d_10">
    <path d="M 598.181712 371.54625 
L 353.898312 188.3337 
L 231.756612 371.54625 
L 353.898312 585.294225 
L 598.181712 371.54625 
" clip-path="url(#pc6f85b8f1d)" style="fill: none; stroke: #e74c3c; stroke-opacity: 0.8; stroke-width: 2; stroke-linecap: round"/>
    <defs>
     <path id="m39b80dc0f5" d="M 0 3.5 
C 0.928211 3.5 1.81853 3.131218 2.474874 2.474874 
C 3.131218 1.81853 3.5 0.928211 3.5 0 
C 3.5 -0.928211 3.131218 -1.81853 2.474874 -2.474874 
C 1.81853 -3.131218 0.928211 -3.5 0 -3.5 
C -0.928211 -3.5 -1.81853 -3.131218 -2.474874 -2.474874 
C -3.131218 -1.81853 -3.5 -0.928211 -3.5 0 
C -3.5 0.928211 -3.131218 1.81853 -2.474874 2.474874 
C -1.81853 3.131218 -0.928211 3.5 0 3.5 
z
"/>
    </defs>
    <g clip-path="url(#pc6f85b8f1d)">
     <use xlink:href="#m39b80dc0f5" x="598.181712" y="371.54625" style="fill: #e74c3c; fill-opacity: 0.8"/>
     <use xlink:href="#m39b80dc0f5" x="353.898312" y="188.3337" style="fill: #e74c3c; fill-opacity: 0.8"/>
     <use xlink:href="#m39b80dc0f5" x="231.756612" y="371.54625" style="fill: #e74c3c; fill-opacity: 0.8"/>
     <use xlink:href="#m39b80dc0f5" x="353.898312" y="585.294225" style="fill: #e74c3c; fill-opacity: 0.8"/>
     <use xlink:href="#m39b80dc0f5" x="598.181712" y="371.54625" style="fill: #e74c3c; fill-opacity: 0.8"/>
    </g>
   </g>
   <g id="line2d_11">
    <path d="M 567.646287 371.54625 
L 353.898312 218.869125 
L 79.079487 371.54625 
L 353.898312 615.82965 
L 567.646287 371.54625 
" clip-path="url(#pc6f85b8f1d)" style="fill: none; stroke: #3498db; stroke-opacity: 0.8; stroke-width: 2; stroke-linecap: round"/>
    <defs>
     <path id="ma460c7ac64" d="M 0 3.5 
C 0.928211 3.5 1.81853 3.131218 2.474874 2.474874 
C 3.131218 1.81853 3.5 0.928211 3.5 0 
C 3.5 -0.928211 3.131218 -1.81853 2.474874 -2.474874 
C 1.81853 -3.131218 0.928211 -3.5 0 -3.5 
C -0.928211 -3.5 -1.81853 -3.131218 -2.474874 -2.474874 
C -3.131218 -1.81853 -3.5 -0.928211 -3.5 0 
C -3.5 0.928211 -3.131218 1.81853 -2.474874 2.474874 
C -1.81853 3.131218 -0.928211 3.5 0 3.5 
z
"/>
    </defs>
    <g clip-path="url(#pc6f85b8f1d)">
     <use xlink:href="#ma460c7ac64" x="567.646287" y="371.54625" style="fill: #3498db; fill-opacity: 0.8"/>
     <use xlink:href="#ma460c7ac64" x="353.898312" y="218.869125" style="fill: #3498db; fill-opacity: 0.8"/>
     <use xlink:href="#ma460c7ac64" x="79.079487" y="371.54625" style="fill: #3498db; fill-opacity: 0.8"/>
     <use xlink:href="#ma460c7ac64" x="353.898312" y="615.82965" style="fill: #3498db; fill-opacity: 0.8"/>
     <use xlink:href="#ma460c7ac64" x="567.646287" y="371.54625" style="fill: #3498db; fill-opacity: 0.8"/>
    </g>
   </g>
   <g id="line2d_12">
    <path d="M 537.110862 371.54625 
L 353.898312 96.727425 
L 140.150337 371.54625 
L 353.898312 646.365075 
L 537.110862 371.54625 
" clip-path="url(#pc6f85b8f1d)" style="fill: none; stroke: #2ecc71; stroke-opacity: 0.8; stroke-width: 2; stroke-linecap: round"/>
    <defs>
     <path id="m2afe1f0bd1" d="M 0 3.5 
C 0.928211 3.5 1.81853 3.131218 2.474874 2.474874 
C 3.131218 1.81853 3.5 0.928211 3.5 0 
C 3.5 -0.928211 3.131218 -1.81853 2.474874 -2.474874 
C 1.81853 -3.131218 0.928211 -3.5 0 -3.5 
C -0.928211 -3.5 -1.81853 -3.131218 -2.474874 -2.474874 
C -3.131218 -1.81853 -3.5 -0.928211 -3.5 0 
C -3.5 0.928211 -3.131218 1.81853 -2.474874 2.474874 
C -1.81853 3.131218 -0.928211 3.5 0 3.5 
z
"/>
    </defs>
    <g clip-path="url(#pc6f85b8f1d)">
     <use xlink:href="#m2afe1f0bd1" x="537.110862" y="371.54625" style="fill: #2ecc71; fill-opacity: 0.8"/>
     <use xlink:href="#m2afe1f0bd1" x="353.898312" y="96.727425" style="fill: #2ecc71; fill-opacity: 0.8"/>
     <use xlink:href="#m2afe1f0bd1" x="140.150337" y="371.54625" style="fill: #2ecc71; fill-opacity: 0.8"/>
     <use xlink:href="#m2afe1f0bd1" x="353.898312" y="646.365075" style="fill: #2ecc71; fill-opacity: 0.8"/>
     <use xlink:href="#m2afe1f0bd1" x="537.110862" y="371.54625" style="fill: #2ecc71; fill-opacity: 0.8"/>
    </g>
   </g>
   <g id="line2d_13">
    <path d="M 628.717137 371.54625 
L 353.898312 127.26285 
L 170.685762 371.54625 
L 353.898312 585.294225 
L 628.717137 371.54625 
" clip-path="url(#pc6f85b8f1d)" style="fill: none; stroke: #f39c12; stroke-opacity: 0.8; stroke-width: 2; stroke-linecap: round"/>
    <defs>
     <path id="mccc799da4a" d="M 0 3.5 
C 0.928211 3.5 1.81853 3.131218 2.474874 2.474874 
C 3.131218 1.81853 3.5 0.928211 3.5 0 
C 3.5 -0.928211 3.131218 -1.81853 2.474874 -2.474874 
C 1.81853 -3.131218 0.928211 -3.5 0 -3.5 
C -0.928211 -3.5 -1.81853 -3.131218 -2.474874 -2.474874 
C -3.131218 -1.81853 -3.5 -0.928211 -3.5 0 
C -3.5 0.928211 -3.131218 1.81853 -2.474874 2.474874 
C -1.81853 3.131218 -0.928211 3.5 0 3.5 
z
"/>
    </defs>
    <g clip-path="url(#pc6f85b8f1d)">
     <use xlink:href="#mccc799da4a" x="628.717137" y="371.54625" style="fill: #f39c12; fill-opacity: 0.8"/>
     <use xlink:href="#mccc799da4a" x="353.898312" y="127.26285" style="fill: #f39c12; fill-opacity: 0.8"/>
     <use xlink:href="#mccc799da4a" x="170.685762" y="371.54625" style="fill: #f39c12; fill-opacity: 0.8"/>
     <use xlink:href="#mccc799da4a" x="353.898312" y="585.294225" style="fill: #f39c12; fill-opacity: 0.8"/>
     <use xlink:href="#mccc799da4a" x="628.717137" y="371.54625" style="fill: #f39c12; fill-opacity: 0.8"/>
    </g>
   </g>
   <g id="line2d_14">
    <path d="M 659.252562 371.54625 
L 353.898312 218.869125 
L 109.614912 371.54625 
L 353.898312 676.9005 
L 659.252562 371.54625 
" clip-path="url(#pc6f85b8f1d)" style="fill: none; stroke: #ffd700; stroke-width: 4; stroke-linecap: round"/>
    <defs>
     <path id="m33b04c34b5" d="M 0 4 
C 1.060812 4 2.078319 3.578535 2.828427 2.828427 
C 3.578535 2.078319 4 1.060812 4 0 
C 4 -1.060812 3.578535 -2.078319 2.828427 -2.828427 
C 2.078319 -3.578535 1.060812 -4 0 -4 
C -1.060812 -4 -2.078319 -3.578535 -2.828427 -2.828427 
C -3.578535 -2.078319 -4 -1.060812 -4 0 
C -4 1.060812 -3.578535 2.078319 -2.828427 2.828427 
C -2.078319 3.578535 -1.060812 4 0 4 
z
"/>
    </defs>
    <g clip-path="url(#pc6f85b8f1d)">
     <use xlink:href="#m33b04c34b5" x="659.252562" y="371.54625" style="fill: #ffd700"/>
     <use xlink:href="#m33b04c34b5" x="353.898312" y="218.869125" style="fill: #ffd700"/>
     <use xlink:href="#m33b04c34b5" x="109.614912" y="371.54625" style="fill: #ffd700"/>
     <use xlink:href="#m33b04c34b5" x="353.898312" y="676.9005" style="fill: #ffd700"/>
     <use xlink:href="#m33b04c34b5" x="659.252562" y="371.54625" style="fill: #ffd700"/>
    </g>
   </g>
   <g id="line2d_15">
    <path d="M 506.575437 371.54625 
L 353.898312 66.192 
L 201.221187 371.54625 
L 353.898312 554.7588 
L 506.575437 371.54625 
" clip-path="url(#pc6f85b8f1d)" style="fill: none; stroke: #1abc9c; stroke-opacity: 0.8; stroke-width: 2; stroke-linecap: round"/>
    <defs>
     <path id="mf750fe4719" d="M 0 3.5 
C 0.928211 3.5 1.81853 3.131218 2.474874 2.474874 
C 3.131218 1.81853 3.5 0.928211 3.5 0 
C 3.5 -0.928211 3.131218 -1.81853 2.474874 -2.474874 
C 1.81853 -3.131218 0.928211 -3.5 0 -3.5 
C -0.928211 -3.5 -1.81853 -3.131218 -2.474874 -2.474874 
C -3.131218 -1.81853 -3.5 -0.928211 -3.5 0 
C -3.5 0.928211 -3.131218 1.81853 -2.474874 2.474874 
C -1.81853 3.131218 -0.928211 3.5 0 3.5 
z
"/>
    </defs>
    <g clip-path="url(#pc6f85b8f1d)">
     <use xlink:href="#mf750fe4719" x="506.575437" y="371.54625" style="fill: #1abc9c; fill-opacity: 0.8"/>
     <use xlink:href="#mf750fe4719" x="353.898312" y="66.192" style="fill: #1abc9c; fill-opacity: 0.8"/>
     <use xlink:href="#mf750fe4719" x="201.221187" y="371.54625" style="fill: #1abc9c; fill-opacity: 0.8"/>
     <use xlink:href="#mf750fe4719" x="353.898312" y="554.7588" style="fill: #1abc9c; fill-opacity: 0.8"/>
     <use xlink:href="#mf750fe4719" x="506.575437" y="371.54625" style="fill: #1abc9c; fill-opacity: 0.8"/>
    </g>
   </g>
   <g id="line2d_16">
    <path d="M 567.646287 371.54625 
L 353.898312 157.798275 
L 109.614912 371.54625 
L 353.898312 615.82965 
L 567.646287 371.54625 
" clip-path="url(#pc6f85b8f1d)" style="fill: none; stroke: #e67e22; stroke-opacity: 0.8; stroke-width: 2; stroke-linecap: round"/>
    <defs>
     <path id="mae21909044" d="M 0 3.5 
C 0.928211 3.5 1.81853 3.131218 2.474874 2.474874 
C 3.131218 1.81853 3.5 0.928211 3.5 0 
C 3.5 -0.928211 3.131218 -1.81853 2.474874 -2.474874 
C 1.81853 -3.131218 0.928211 -3.5 0 -3.5 
C -0.928211 -3.5 -1.81853 -3.131218 -2.474874 -2.474874 
C -3.131218 -1.81853 -3.5 -0.928211 -3.5 0 
C -3.5 0.928211 -3.131218 1.81853 -2.474874 2.474874 
C -1.81853 3.131218 -0.928211 3.5 0 3.5 
z
"/>
    </defs>
    <g clip-path="url(#pc6f85b8f1d)">
     <use xlink:href="#mae21909044" x="567.646287" y="371.54625" style="fill: #e67e22; fill-opacity: 0.8"/>
     <use xlink:href="#mae21909044" x="353.898312" y="157.798275" style="fill: #e67e22; fill-opacity: 0.8"/>
     <use xlink:href="#mae21909044" x="109.614912" y="371.54625" style="fill: #e67e22; fill-opacity: 0.8"/>
     <use xlink:href="#mae21909044" x="353.898312" y="615.82965" style="fill: #e67e22; fill-opacity: 0.8"/>
     <use xlink:href="#mae21909044" x="567.646287" y="371.54625" style="fill: #e67e22; fill-opacity: 0.8"/>
    </g>
   </g>
   <g id="line2d_17">
    <path d="M 598.181712 371.54625 
L 353.898312 157.798275 
L 170.685762 371.54625 
L 353.898312 585.294225 
L 598.181712 371.54625 
" clip-path="url(#pc6f85b8f1d)" style="fill: none; stroke: #95a5a6; stroke-opacity: 0.8; stroke-width: 2; stroke-linecap: round"/>
    <defs>
     <path id="ma7c1f3303e" d="M 0 3.5 
C 0.928211 3.5 1.81853 3.131218 2.474874 2.474874 
C 3.131218 1.81853 3.5 0.928211 3.5 0 
C 3.5 -0.928211 3.131218 -1.81853 2.474874 -2.474874 
C 1.81853 -3.131218 0.928211 -3.5 0 -3.5 
C -0.928211 -3.5 -1.81853 -3.131218 -2.474874 -2.474874 
C -3.131218 -1.81853 -3.5 -0.928211 -3.5 0 
C -3.5 0.928211 -3.131218 1.81853 -2.474874 2.474874 
C -1.81853 3.131218 -0.928211 3.5 0 3.5 
z
"/>
    </defs>
    <g clip-path="url(#pc6f85b8f1d)">
     <use xlink:href="#ma7c1f3303e" x="598.181712" y="371.54625" style="fill: #95a5a6; fill-opacity: 0.8"/>
     <use xlink:href="#ma7c1f3303e" x="353.898312" y="157.798275" style="fill: #95a5a6; fill-opacity: 0.8"/>
     <use xlink:href="#ma7c1f3303e" x="170.685762" y="371.54625" style="fill: #95a5a6; fill-opacity: 0.8"/>
     <use xlink:href="#ma7c1f3303e" x="353.898312" y="585.294225" style="fill: #95a5a6; fill-opacity: 0.8"/>
     <use xlink:href="#ma7c1f3303e" x="598.181712" y="371.54625" style="fill: #95a5a6; fill-opacity: 0.8"/>
    </g>
   </g>
   <g id="patch_11">
    <path d="M 659.252562 371.54625 
C 659.252562 331.447497 651.353983 291.738654 636.008854 254.692238 
C 620.663726 217.645821 598.170473 183.982289 569.816373 155.628189 
C 541.462273 127.274089 507.798742 104.780837 470.752325 89.435708 
C 433.705908 74.09058 393.997065 66.192 353.898312 66.192 
C 313.79956 66.192 274.090717 74.09058 237.0443 89.435708 
C 199.997883 104.780837 166.334352 127.274089 137.980252 155.628189 
C 109.626152 183.982289 87.132899 217.645821 71.787771 254.692238 
C 56.442642 291.738654 48.544062 331.447497 48.544062 371.54625 
C 48.544062 411.645003 56.442642 451.353846 71.787771 488.400262 
C 87.132899 525.446679 109.626152 559.110211 137.980252 587.464311 
C 166.334352 615.818411 199.997883 638.311663 237.0443 653.656792 
C 274.090717 669.00192 313.79956 676.9005 353.898312 676.9005 
C 393.997065 676.9005 433.705908 669.00192 470.752325 653.656792 
C 507.798742 638.311663 541.462273 615.818411 569.816373 587.464311 
C 598.170473 559.110211 620.663726 525.446679 636.008854 488.400262 
C 651.353983 451.353846 659.252562 411.645003 659.252562 371.54625 
" style="fill: none"/>
   </g>
   <g id="text_10">
    <!-- Recipe Comparison - Judges' Scores -->
    <g style="fill: #262626" transform="translate(212.852062 18.8475) scale(0.16 -0.16)">
     <defs>
      <path id="Arial-BoldMT-70" d="M 434 3319 
L 1253 3319 
L 1253 2831 
Q 1413 3081 1684 3237 
Q 1956 3394 2288 3394 
Q 2866 3394 3269 2941 
Q 3672 2488 3672 1678 
Q 3672 847 3265 386 
Q 2859 -75 2281 -75 
Q 2006 -75 1782 34 
Q 1559 144 1313 409 
L 1313 -1263 
L 434 -1263 
L 434 3319 
z
M 1303 1716 
Q 1303 1156 1525 889 
Q 1747 622 2066 622 
Q 2372 622 2575 867 
Q 2778 1113 2778 1672 
Q 2778 2194 2568 2447 
Q 2359 2700 2050 2700 
Q 1728 2700 1515 2451 
Q 1303 2203 1303 1716 
z
" transform="scale(0.015625)"/>
      <path id="Arial-BoldMT-20" transform="scale(0.015625)"/>
      <path id="Arial-BoldMT-6d" d="M 394 3319 
L 1203 3319 
L 1203 2866 
Q 1638 3394 2238 3394 
Q 2556 3394 2790 3262 
Q 3025 3131 3175 2866 
Q 3394 3131 3647 3262 
Q 3900 3394 4188 3394 
Q 4553 3394 4806 3245 
Q 5059 3097 5184 2809 
Q 5275 2597 5275 2122 
L 5275 0 
L 4397 0 
L 4397 1897 
Q 4397 2391 4306 2534 
Q 4184 2722 3931 2722 
Q 3747 2722 3584 2609 
Q 3422 2497 3350 2280 
Q 3278 2063 3278 1594 
L 3278 0 
L 2400 0 
L 2400 1819 
Q 2400 2303 2353 2443 
Q 2306 2584 2207 2653 
Q 2109 2722 1941 2722 
Q 1738 2722 1575 2612 
Q 1413 2503 1342 2297 
Q 1272 2091 1272 1613 
L 1272 0 
L 394 0 
L 394 3319 
z
" transform="scale(0.015625)"/>
      <path id="Arial-BoldMT-2d" d="M 359 1222 
L 359 2100 
L 2084 2100 
L 2084 1222 
L 359 1222 
z
" transform="scale(0.015625)"/>
      <path id="Arial-BoldMT-4a" d="M 2119 4581 
L 3041 4581 
L 3041 1681 
Q 3041 1113 2941 806 
Q 2806 406 2453 164 
Q 2100 -78 1522 -78 
Q 844 -78 478 301 
Q 113 681 109 1416 
L 981 1516 
Q 997 1122 1097 959 
Q 1247 713 1553 713 
Q 1863 713 1991 889 
Q 2119 1066 2119 1622 
L 2119 4581 
z
" transform="scale(0.015625)"/>
      <path id="Arial-BoldMT-75" d="M 2644 0 
L 2644 497 
Q 2463 231 2167 78 
Q 1872 -75 1544 -75 
Q 1209 -75 943 72 
Q 678 219 559 484 
Q 441 750 441 1219 
L 441 3319 
L 1319 3319 
L 1319 1794 
Q 1319 1094 1367 936 
Q 1416 778 1544 686 
Q 1672 594 1869 594 
Q 2094 594 2272 717 
Q 2450 841 2515 1023 
Q 2581 1206 2581 1919 
L 2581 3319 
L 3459 3319 
L 3459 0 
L 2644 0 
z
" transform="scale(0.015625)"/>
      <path id="Arial-BoldMT-64" d="M 3503 0 
L 2688 0 
L 2688 488 
Q 2484 203 2207 64 
Q 1931 -75 1650 -75 
Q 1078 -75 670 386 
Q 263 847 263 1672 
Q 263 2516 659 2955 
Q 1056 3394 1663 3394 
Q 2219 3394 2625 2931 
L 2625 4581 
L 3503 4581 
L 3503 0 
z
M 1159 1731 
Q 1159 1200 1306 963 
Q 1519 619 1900 619 
Q 2203 619 2415 876 
Q 2628 1134 2628 1647 
Q 2628 2219 2422 2470 
Q 2216 2722 1894 2722 
Q 1581 2722 1370 2473 
Q 1159 2225 1159 1731 
z
" transform="scale(0.015625)"/>
      <path id="Arial-BoldMT-67" d="M 378 -219 
L 1381 -341 
Q 1406 -516 1497 -581 
Q 1622 -675 1891 -675 
Q 2234 -675 2406 -572 
Q 2522 -503 2581 -350 
Q 2622 -241 2622 53 
L 2622 538 
Q 2228 0 1628 0 
Q 959 0 569 566 
Q 263 1013 263 1678 
Q 263 2513 664 2953 
Q 1066 3394 1663 3394 
Q 2278 3394 2678 2853 
L 2678 3319 
L 3500 3319 
L 3500 341 
Q 3500 -247 3403 -537 
Q 3306 -828 3131 -993 
Q 2956 -1159 2664 -1253 
Q 2372 -1347 1925 -1347 
Q 1081 -1347 728 -1058 
Q 375 -769 375 -325 
Q 375 -281 378 -219 
z
M 1163 1728 
Q 1163 1200 1367 954 
Q 1572 709 1872 709 
Q 2194 709 2416 961 
Q 2638 1213 2638 1706 
Q 2638 2222 2425 2472 
Q 2213 2722 1888 2722 
Q 1572 2722 1367 2476 
Q 1163 2231 1163 1728 
z
" transform="scale(0.015625)"/>
      <path id="Arial-BoldMT-27" d="M 453 2953 
L 288 3806 
L 288 4581 
L 1244 4581 
L 1244 3806 
L 1100 2953 
L 453 2953 
z
" transform="scale(0.015625)"/>
     </defs>
     <use xlink:href="#Arial-BoldMT-52"/>
     <use xlink:href="#Arial-BoldMT-65" transform="translate(72.216797 0)"/>
     <use xlink:href="#Arial-BoldMT-63" transform="translate(127.832031 0)"/>
     <use xlink:href="#Arial-BoldMT-69" transform="translate(183.447266 0)"/>
     <use xlink:href="#Arial-BoldMT-70" transform="translate(211.230469 0)"/>
     <use xlink:href="#Arial-BoldMT-65" transform="translate(272.314453 0)"/>
     <use xlink:href="#Arial-BoldMT-20" transform="translate(327.929688 0)"/>
     <use xlink:href="#Arial-BoldMT-43" transform="translate(355.712891 0)"/>
     <use xlink:href="#Arial-BoldMT-6f" transform="translate(427.929688 0)"/>
     <use xlink:href="#Arial-BoldMT-6d" transform="translate(489.013672 0)"/>
     <use xlink:href="#Arial-BoldMT-70" transform="translate(577.929688 0)"/>
     <use xlink:href="#Arial-BoldMT-61" transform="translate(639.013672 0)"/>
     <use xlink:href="#Arial-BoldMT-72" transform="translate(694.628906 0)"/>
     <use xlink:href="#Arial-BoldMT-69" transform="translate(733.544922 0)"/>
     <use xlink:href="#Arial-BoldMT-73" transform="translate(761.328125 0)"/>
     <use xlink:href="#Arial-BoldMT-6f" transform="translate(816.943359 0)"/>
     <use xlink:href="#Arial-BoldMT-6e" transform="translate(878.027344 0)"/>
     <use xlink:href="#Arial-BoldMT-20" transform="translate(939.111328 0)"/>
     <use xlink:href="#Arial-BoldMT-2d" transform="translate(966.894531 0)"/>
     <use xlink:href="#Arial-BoldMT-20" transform="translate(1000.195312 0)"/>
     <use xlink:href="#Arial-BoldMT-4a" transform="translate(1027.978516 0)"/>
     <use xlink:href="#Arial-BoldMT-75" transform="translate(1083.59375 0)"/>
     <use xlink:href="#Arial-BoldMT-64" transform="translate(1144.677734 0)"/>
     <use xlink:href="#Arial-BoldMT-67" transform="translate(1205.761719 0)"/>
     <use xlink:href="#Arial-BoldMT-65" transform="translate(1266.845703 0)"/>
     <use xlink:href="#Arial-BoldMT-73" transform="translate(1322.460938 0)"/>
     <use xlink:href="#Arial-BoldMT-27" transform="translate(1378.076172 0)"/>
     <use xlink:href="#Arial-BoldMT-20" transform="translate(1401.855469 0)"/>
     <use xlink:href="#Arial-BoldMT-53" transform="translate(1429.638672 0)"/>
     <use xlink:href="#Arial-BoldMT-63" transform="translate(1496.337891 0)"/>
     <use xlink:href="#Arial-BoldMT-6f" transform="translate(1551.953125 0)"/>
     <use xlink:href="#Arial-BoldMT-72" transform="translate(1613.037109 0)"/>
     <use xlink:href="#Arial-BoldMT-65" transform="translate(1651.953125 0)"/>
     <use xlink:href="#Arial-BoldMT-73" transform="translate(1707.568359 0)"/>
    </g>
    <!-- (Winner Highlighted in Gold) -->
    <g style="fill: #262626" transform="translate(245.549562 36.192) scale(0.16 -0.16)">
     <defs>
      <path id="Arial-BoldMT-28" d="M 1916 -1347 
L 1313 -1347 
Q 834 -625 584 153 
Q 334 931 334 1659 
Q 334 2563 644 3369 
Q 913 4069 1325 4659 
L 1925 4659 
Q 1497 3713 1336 3048 
Q 1175 2384 1175 1641 
Q 1175 1128 1270 590 
Q 1366 53 1531 -431 
Q 1641 -750 1916 -1347 
z
" transform="scale(0.015625)"/>
      <path id="Arial-BoldMT-57" d="M 1116 0 
L 22 4581 
L 969 4581 
L 1659 1434 
L 2497 4581 
L 3597 4581 
L 4400 1381 
L 5103 4581 
L 6034 4581 
L 4922 0 
L 3941 0 
L 3028 3425 
L 2119 0 
L 1116 0 
z
" transform="scale(0.015625)"/>
      <path id="Arial-BoldMT-48" d="M 469 0 
L 469 4581 
L 1394 4581 
L 1394 2778 
L 3206 2778 
L 3206 4581 
L 4131 4581 
L 4131 0 
L 3206 0 
L 3206 2003 
L 1394 2003 
L 1394 0 
L 469 0 
z
" transform="scale(0.015625)"/>
      <path id="Arial-BoldMT-6c" d="M 459 0 
L 459 4581 
L 1338 4581 
L 1338 0 
L 459 0 
z
" transform="scale(0.015625)"/>
      <path id="Arial-BoldMT-47" d="M 2597 1684 
L 2597 2456 
L 4591 2456 
L 4591 631 
Q 4300 350 3748 136 
Q 3197 -78 2631 -78 
Q 1913 -78 1378 223 
Q 844 525 575 1086 
Q 306 1647 306 2306 
Q 306 3022 606 3578 
Q 906 4134 1484 4431 
Q 1925 4659 2581 4659 
Q 3434 4659 3914 4301 
Q 4394 3944 4531 3313 
L 3613 3141 
Q 3516 3478 3248 3673 
Q 2981 3869 2581 3869 
Q 1975 3869 1617 3484 
Q 1259 3100 1259 2344 
Q 1259 1528 1621 1120 
Q 1984 713 2572 713 
Q 2863 713 3155 827 
Q 3447 941 3656 1103 
L 3656 1684 
L 2597 1684 
z
" transform="scale(0.015625)"/>
      <path id="Arial-BoldMT-29" d="M 216 -1347 
Q 475 -791 581 -494 
Q 688 -197 778 190 
Q 869 578 912 926 
Q 956 1275 956 1641 
Q 956 2384 797 3048 
Q 638 3713 209 4659 
L 806 4659 
Q 1278 3988 1539 3234 
Q 1800 2481 1800 1706 
Q 1800 1053 1594 306 
Q 1359 -531 822 -1347 
L 216 -1347 
z
" transform="scale(0.015625)"/>
     </defs>
     <use xlink:href="#Arial-BoldMT-28"/>
     <use xlink:href="#Arial-BoldMT-57" transform="translate(33.300781 0)"/>
     <use xlink:href="#Arial-BoldMT-69" transform="translate(126.810547 0)"/>
     <use xlink:href="#Arial-BoldMT-6e" transform="translate(154.59375 0)"/>
     <use xlink:href="#Arial-BoldMT-6e" transform="translate(215.677734 0)"/>
     <use xlink:href="#Arial-BoldMT-65" transform="translate(276.761719 0)"/>
     <use xlink:href="#Arial-BoldMT-72" transform="translate(332.376953 0)"/>
     <use xlink:href="#Arial-BoldMT-20" transform="translate(371.292969 0)"/>
     <use xlink:href="#Arial-BoldMT-48" transform="translate(399.076172 0)"/>
     <use xlink:href="#Arial-BoldMT-69" transform="translate(471.292969 0)"/>
     <use xlink:href="#Arial-BoldMT-67" transform="translate(499.076172 0)"/>
     <use xlink:href="#Arial-BoldMT-68" transform="translate(560.160156 0)"/>
     <use xlink:href="#Arial-BoldMT-6c" transform="translate(621.244141 0)"/>
     <use xlink:href="#Arial-BoldMT-69" transform="translate(649.027344 0)"/>
     <use xlink:href="#Arial-BoldMT-67" transform="translate(676.810547 0)"/>
     <use xlink:href="#Arial-BoldMT-68" transform="translate(737.894531 0)"/>
     <use xlink:href="#Arial-BoldMT-74" transform="translate(798.978516 0)"/>
     <use xlink:href="#Arial-BoldMT-65" transform="translate(832.279297 0)"/>
     <use xlink:href="#Arial-BoldMT-64" transform="translate(887.894531 0)"/>
     <use xlink:href="#Arial-BoldMT-20" transform="translate(948.978516 0)"/>
     <use xlink:href="#Arial-BoldMT-69" transform="translate(976.761719 0)"/>
     <use xlink:href="#Arial-BoldMT-6e" transform="translate(1004.544922 0)"/>
     <use xlink:href="#Arial-BoldMT-20" transform="translate(1065.628906 0)"/>
     <use xlink:href="#Arial-BoldMT-47" transform="translate(1093.412109 0)"/>
     <use xlink:href="#Arial-BoldMT-6f" transform="translate(1171.195312 0)"/>
     <use xlink:href="#Arial-BoldMT-6c" transform="translate(1232.279297 0)"/>
     <use xlink:href="#Arial-BoldMT-64" transform="translate(1260.0625 0)"/>
     <use xlink:href="#Arial-BoldMT-29" transform="translate(1321.146484 0)"/>
    </g>
   </g>
   <g id="legend_1">
    <g id="line2d_18">
     <path d="M 672.904175 78.849812 
L 682.904175 78.849812 
L 692.904175 78.849812 
" style="fill: none; stroke: #e74c3c; stroke-opacity: 0.8; stroke-width: 2; stroke-linecap: round"/>
     <g>
      <use xlink:href="#m39b80dc0f5" x="682.904175" y="78.849812" style="fill: #e74c3c; fill-opacity: 0.8"/>
     </g>
    </g>
    <g id="text_11">
     <!-- Classic Swiss Velvet -->
     <g style="fill: #262626" transform="translate(700.904175 82.349812) scale(0.1 -0.1)">
      <defs>
       <path id="ArialMT-43" d="M 3763 1606 
L 4369 1453 
Q 4178 706 3683 314 
Q 3188 -78 2472 -78 
Q 1731 -78 1267 223 
Q 803 525 561 1097 
Q 319 1669 319 2325 
Q 319 3041 592 3573 
Q 866 4106 1370 4382 
Q 1875 4659 2481 4659 
Q 3169 4659 3637 4309 
Q 4106 3959 4291 3325 
L 3694 3184 
Q 3534 3684 3231 3912 
Q 2928 4141 2469 4141 
Q 1941 4141 1586 3887 
Q 1231 3634 1087 3207 
Q 944 2781 944 2328 
Q 944 1744 1114 1308 
Q 1284 872 1643 656 
Q 2003 441 2422 441 
Q 2931 441 3284 734 
Q 3638 1028 3763 1606 
z
" transform="scale(0.015625)"/>
       <path id="ArialMT-6c" d="M 409 0 
L 409 4581 
L 972 4581 
L 972 0 
L 409 0 
z
" transform="scale(0.015625)"/>
       <path id="ArialMT-61" d="M 2588 409 
Q 2275 144 1986 34 
Q 1697 -75 1366 -75 
Q 819 -75 525 192 
Q 231 459 231 875 
Q 231 1119 342 1320 
Q 453 1522 633 1644 
Q 813 1766 1038 1828 
Q 1203 1872 1538 1913 
Q 2219 1994 2541 2106 
Q 2544 2222 2544 2253 
Q 2544 2597 2384 2738 
Q 2169 2928 1744 2928 
Q 1347 2928 1158 2789 
Q 969 2650 878 2297 
L 328 2372 
Q 403 2725 575 2942 
Q 747 3159 1072 3276 
Q 1397 3394 1825 3394 
Q 2250 3394 2515 3294 
Q 2781 3194 2906 3042 
Q 3031 2891 3081 2659 
Q 3109 2516 3109 2141 
L 3109 1391 
Q 3109 606 3145 398 
Q 3181 191 3288 0 
L 2700 0 
Q 2613 175 2588 409 
z
M 2541 1666 
Q 2234 1541 1622 1453 
Q 1275 1403 1131 1340 
Q 988 1278 909 1158 
Q 831 1038 831 891 
Q 831 666 1001 516 
Q 1172 366 1500 366 
Q 1825 366 2078 508 
Q 2331 650 2450 897 
Q 2541 1088 2541 1459 
L 2541 1666 
z
" transform="scale(0.015625)"/>
       <path id="ArialMT-73" d="M 197 991 
L 753 1078 
Q 800 744 1014 566 
Q 1228 388 1613 388 
Q 2000 388 2187 545 
Q 2375 703 2375 916 
Q 2375 1106 2209 1216 
Q 2094 1291 1634 1406 
Q 1016 1563 777 1677 
Q 538 1791 414 1992 
Q 291 2194 291 2438 
Q 291 2659 392 2848 
Q 494 3038 669 3163 
Q 800 3259 1026 3326 
Q 1253 3394 1513 3394 
Q 1903 3394 2198 3281 
Q 2494 3169 2634 2976 
Q 2775 2784 2828 2463 
L 2278 2388 
Q 2241 2644 2061 2787 
Q 1881 2931 1553 2931 
Q 1166 2931 1000 2803 
Q 834 2675 834 2503 
Q 834 2394 903 2306 
Q 972 2216 1119 2156 
Q 1203 2125 1616 2013 
Q 2213 1853 2448 1751 
Q 2684 1650 2818 1456 
Q 2953 1263 2953 975 
Q 2953 694 2789 445 
Q 2625 197 2315 61 
Q 2006 -75 1616 -75 
Q 969 -75 630 194 
Q 291 463 197 991 
z
" transform="scale(0.015625)"/>
       <path id="ArialMT-69" d="M 425 3934 
L 425 4581 
L 988 4581 
L 988 3934 
L 425 3934 
z
M 425 0 
L 425 3319 
L 988 3319 
L 988 0 
L 425 0 
z
" transform="scale(0.015625)"/>
       <path id="ArialMT-63" d="M 2588 1216 
L 3141 1144 
Q 3050 572 2676 248 
Q 2303 -75 1759 -75 
Q 1078 -75 664 370 
Q 250 816 250 1647 
Q 250 2184 428 2587 
Q 606 2991 970 3192 
Q 1334 3394 1763 3394 
Q 2303 3394 2647 3120 
Q 2991 2847 3088 2344 
L 2541 2259 
Q 2463 2594 2264 2762 
Q 2066 2931 1784 2931 
Q 1359 2931 1093 2626 
Q 828 2322 828 1663 
Q 828 994 1084 691 
Q 1341 388 1753 388 
Q 2084 388 2306 591 
Q 2528 794 2588 1216 
z
" transform="scale(0.015625)"/>
       <path id="ArialMT-20" transform="scale(0.015625)"/>
       <path id="ArialMT-53" d="M 288 1472 
L 859 1522 
Q 900 1178 1048 958 
Q 1197 738 1509 602 
Q 1822 466 2213 466 
Q 2559 466 2825 569 
Q 3091 672 3220 851 
Q 3350 1031 3350 1244 
Q 3350 1459 3225 1620 
Q 3100 1781 2813 1891 
Q 2628 1963 1997 2114 
Q 1366 2266 1113 2400 
Q 784 2572 623 2826 
Q 463 3081 463 3397 
Q 463 3744 659 4045 
Q 856 4347 1234 4503 
Q 1613 4659 2075 4659 
Q 2584 4659 2973 4495 
Q 3363 4331 3572 4012 
Q 3781 3694 3797 3291 
L 3216 3247 
Q 3169 3681 2898 3903 
Q 2628 4125 2100 4125 
Q 1550 4125 1298 3923 
Q 1047 3722 1047 3438 
Q 1047 3191 1225 3031 
Q 1400 2872 2139 2705 
Q 2878 2538 3153 2413 
Q 3553 2228 3743 1945 
Q 3934 1663 3934 1294 
Q 3934 928 3725 604 
Q 3516 281 3123 101 
Q 2731 -78 2241 -78 
Q 1619 -78 1198 103 
Q 778 284 539 648 
Q 300 1013 288 1472 
z
" transform="scale(0.015625)"/>
       <path id="ArialMT-77" d="M 1034 0 
L 19 3319 
L 600 3319 
L 1128 1403 
L 1325 691 
Q 1338 744 1497 1375 
L 2025 3319 
L 2603 3319 
L 3100 1394 
L 3266 759 
L 3456 1400 
L 4025 3319 
L 4572 3319 
L 3534 0 
L 2950 0 
L 2422 1988 
L 2294 2553 
L 1622 0 
L 1034 0 
z
" transform="scale(0.015625)"/>
       <path id="ArialMT-56" d="M 1803 0 
L 28 4581 
L 684 4581 
L 1875 1253 
Q 2019 853 2116 503 
Q 2222 878 2363 1253 
L 3600 4581 
L 4219 4581 
L 2425 0 
L 1803 0 
z
" transform="scale(0.015625)"/>
       <path id="ArialMT-65" d="M 2694 1069 
L 3275 997 
Q 3138 488 2766 206 
Q 2394 -75 1816 -75 
Q 1088 -75 661 373 
Q 234 822 234 1631 
Q 234 2469 665 2931 
Q 1097 3394 1784 3394 
Q 2450 3394 2872 2941 
Q 3294 2488 3294 1666 
Q 3294 1616 3291 1516 
L 816 1516 
Q 847 969 1125 678 
Q 1403 388 1819 388 
Q 2128 388 2347 550 
Q 2566 713 2694 1069 
z
M 847 1978 
L 2700 1978 
Q 2663 2397 2488 2606 
Q 2219 2931 1791 2931 
Q 1403 2931 1139 2672 
Q 875 2413 847 1978 
z
" transform="scale(0.015625)"/>
       <path id="ArialMT-76" d="M 1344 0 
L 81 3319 
L 675 3319 
L 1388 1331 
Q 1503 1009 1600 663 
Q 1675 925 1809 1294 
L 2547 3319 
L 3125 3319 
L 1869 0 
L 1344 0 
z
" transform="scale(0.015625)"/>
       <path id="ArialMT-74" d="M 1650 503 
L 1731 6 
Q 1494 -44 1306 -44 
Q 1000 -44 831 53 
Q 663 150 594 308 
Q 525 466 525 972 
L 525 2881 
L 113 2881 
L 113 3319 
L 525 3319 
L 525 4141 
L 1084 4478 
L 1084 3319 
L 1650 3319 
L 1650 2881 
L 1084 2881 
L 1084 941 
Q 1084 700 1114 631 
Q 1144 563 1211 522 
Q 1278 481 1403 481 
Q 1497 481 1650 503 
z
" transform="scale(0.015625)"/>
      </defs>
      <use xlink:href="#ArialMT-43"/>
      <use xlink:href="#ArialMT-6c" transform="translate(72.216797 0)"/>
      <use xlink:href="#ArialMT-61" transform="translate(94.433594 0)"/>
      <use xlink:href="#ArialMT-73" transform="translate(150.048828 0)"/>
      <use xlink:href="#ArialMT-73" transform="translate(200.048828 0)"/>
      <use xlink:href="#ArialMT-69" transform="translate(250.048828 0)"/>
      <use xlink:href="#ArialMT-63" transform="translate(272.265625 0)"/>
      <use xlink:href="#ArialMT-20" transform="translate(322.265625 0)"/>
      <use xlink:href="#ArialMT-53" transform="translate(350.048828 0)"/>
      <use xlink:href="#ArialMT-77" transform="translate(416.748047 0)"/>
      <use xlink:href="#ArialMT-69" transform="translate(488.964844 0)"/>
      <use xlink:href="#ArialMT-73" transform="translate(511.181641 0)"/>
      <use xlink:href="#ArialMT-73" transform="translate(561.181641 0)"/>
      <use xlink:href="#ArialMT-20" transform="translate(611.181641 0)"/>
      <use xlink:href="#ArialMT-56" transform="translate(638.964844 0)"/>
      <use xlink:href="#ArialMT-65" transform="translate(700.164062 0)"/>
      <use xlink:href="#ArialMT-6c" transform="translate(755.779297 0)"/>
      <use xlink:href="#ArialMT-76" transform="translate(777.996094 0)"/>
      <use xlink:href="#ArialMT-65" transform="translate(827.996094 0)"/>
      <use xlink:href="#ArialMT-74" transform="translate(883.611328 0)"/>
     </g>
    </g>
    <g id="line2d_19">
     <path d="M 672.904175 93.117 
L 682.904175 93.117 
L 692.904175 93.117 
" style="fill: none; stroke: #3498db; stroke-opacity: 0.8; stroke-width: 2; stroke-linecap: round"/>
     <g>
      <use xlink:href="#ma460c7ac64" x="682.904175" y="93.117" style="fill: #3498db; fill-opacity: 0.8"/>
     </g>
    </g>
    <g id="text_12">
     <!-- Spicy Mexican Mocha -->
     <g style="fill: #262626" transform="translate(700.904175 96.617) scale(0.1 -0.1)">
      <defs>
       <path id="ArialMT-70" d="M 422 -1272 
L 422 3319 
L 934 3319 
L 934 2888 
Q 1116 3141 1344 3267 
Q 1572 3394 1897 3394 
Q 2322 3394 2647 3175 
Q 2972 2956 3137 2557 
Q 3303 2159 3303 1684 
Q 3303 1175 3120 767 
Q 2938 359 2589 142 
Q 2241 -75 1856 -75 
Q 1575 -75 1351 44 
Q 1128 163 984 344 
L 984 -1272 
L 422 -1272 
z
M 931 1641 
Q 931 1000 1190 694 
Q 1450 388 1819 388 
Q 2194 388 2461 705 
Q 2728 1022 2728 1688 
Q 2728 2322 2467 2637 
Q 2206 2953 1844 2953 
Q 1484 2953 1207 2617 
Q 931 2281 931 1641 
z
" transform="scale(0.015625)"/>
       <path id="ArialMT-79" d="M 397 -1278 
L 334 -750 
Q 519 -800 656 -800 
Q 844 -800 956 -737 
Q 1069 -675 1141 -563 
Q 1194 -478 1313 -144 
Q 1328 -97 1363 -6 
L 103 3319 
L 709 3319 
L 1400 1397 
Q 1534 1031 1641 628 
Q 1738 1016 1872 1384 
L 2581 3319 
L 3144 3319 
L 1881 -56 
Q 1678 -603 1566 -809 
Q 1416 -1088 1222 -1217 
Q 1028 -1347 759 -1347 
Q 597 -1347 397 -1278 
z
" transform="scale(0.015625)"/>
       <path id="ArialMT-4d" d="M 475 0 
L 475 4581 
L 1388 4581 
L 2472 1338 
Q 2622 884 2691 659 
Q 2769 909 2934 1394 
L 4031 4581 
L 4847 4581 
L 4847 0 
L 4263 0 
L 4263 3834 
L 2931 0 
L 2384 0 
L 1059 3900 
L 1059 0 
L 475 0 
z
" transform="scale(0.015625)"/>
       <path id="ArialMT-78" d="M 47 0 
L 1259 1725 
L 138 3319 
L 841 3319 
L 1350 2541 
Q 1494 2319 1581 2169 
Q 1719 2375 1834 2534 
L 2394 3319 
L 3066 3319 
L 1919 1756 
L 3153 0 
L 2463 0 
L 1781 1031 
L 1600 1309 
L 728 0 
L 47 0 
z
" transform="scale(0.015625)"/>
       <path id="ArialMT-6e" d="M 422 0 
L 422 3319 
L 928 3319 
L 928 2847 
Q 1294 3394 1984 3394 
Q 2284 3394 2536 3286 
Q 2788 3178 2913 3003 
Q 3038 2828 3088 2588 
Q 3119 2431 3119 2041 
L 3119 0 
L 2556 0 
L 2556 2019 
Q 2556 2363 2490 2533 
Q 2425 2703 2258 2804 
Q 2091 2906 1866 2906 
Q 1506 2906 1245 2678 
Q 984 2450 984 1813 
L 984 0 
L 422 0 
z
" transform="scale(0.015625)"/>
       <path id="ArialMT-6f" d="M 213 1659 
Q 213 2581 725 3025 
Q 1153 3394 1769 3394 
Q 2453 3394 2887 2945 
Q 3322 2497 3322 1706 
Q 3322 1066 3130 698 
Q 2938 331 2570 128 
Q 2203 -75 1769 -75 
Q 1072 -75 642 372 
Q 213 819 213 1659 
z
M 791 1659 
Q 791 1022 1069 705 
Q 1347 388 1769 388 
Q 2188 388 2466 706 
Q 2744 1025 2744 1678 
Q 2744 2294 2464 2611 
Q 2184 2928 1769 2928 
Q 1347 2928 1069 2612 
Q 791 2297 791 1659 
z
" transform="scale(0.015625)"/>
       <path id="ArialMT-68" d="M 422 0 
L 422 4581 
L 984 4581 
L 984 2938 
Q 1378 3394 1978 3394 
Q 2347 3394 2619 3248 
Q 2891 3103 3008 2847 
Q 3125 2591 3125 2103 
L 3125 0 
L 2563 0 
L 2563 2103 
Q 2563 2525 2380 2717 
Q 2197 2909 1863 2909 
Q 1613 2909 1392 2779 
Q 1172 2650 1078 2428 
Q 984 2206 984 1816 
L 984 0 
L 422 0 
z
" transform="scale(0.015625)"/>
      </defs>
      <use xlink:href="#ArialMT-53"/>
      <use xlink:href="#ArialMT-70" transform="translate(66.699219 0)"/>
      <use xlink:href="#ArialMT-69" transform="translate(122.314453 0)"/>
      <use xlink:href="#ArialMT-63" transform="translate(144.53125 0)"/>
      <use xlink:href="#ArialMT-79" transform="translate(194.53125 0)"/>
      <use xlink:href="#ArialMT-20" transform="translate(244.53125 0)"/>
      <use xlink:href="#ArialMT-4d" transform="translate(272.314453 0)"/>
      <use xlink:href="#ArialMT-65" transform="translate(355.615234 0)"/>
      <use xlink:href="#ArialMT-78" transform="translate(411.230469 0)"/>
      <use xlink:href="#ArialMT-69" transform="translate(461.230469 0)"/>
      <use xlink:href="#ArialMT-63" transform="translate(483.447266 0)"/>
      <use xlink:href="#ArialMT-61" transform="translate(533.447266 0)"/>
      <use xlink:href="#ArialMT-6e" transform="translate(589.0625 0)"/>
      <use xlink:href="#ArialMT-20" transform="translate(644.677734 0)"/>
      <use xlink:href="#ArialMT-4d" transform="translate(672.460938 0)"/>
      <use xlink:href="#ArialMT-6f" transform="translate(755.761719 0)"/>
      <use xlink:href="#ArialMT-63" transform="translate(811.376953 0)"/>
      <use xlink:href="#ArialMT-68" transform="translate(861.376953 0)"/>
      <use xlink:href="#ArialMT-61" transform="translate(916.992188 0)"/>
     </g>
    </g>
    <g id="line2d_20">
     <path d="M 672.904175 107.3795 
L 682.904175 107.3795 
L 692.904175 107.3795 
" style="fill: none; stroke: #2ecc71; stroke-opacity: 0.8; stroke-width: 2; stroke-linecap: round"/>
     <g>
      <use xlink:href="#m2afe1f0bd1" x="682.904175" y="107.3795" style="fill: #2ecc71; fill-opacity: 0.8"/>
     </g>
    </g>
    <g id="text_13">
     <!-- Peppermint Dream -->
     <g style="fill: #262626" transform="translate(700.904175 110.8795) scale(0.1 -0.1)">
      <defs>
       <path id="ArialMT-50" d="M 494 0 
L 494 4581 
L 2222 4581 
Q 2678 4581 2919 4538 
Q 3256 4481 3484 4323 
Q 3713 4166 3852 3881 
Q 3991 3597 3991 3256 
Q 3991 2672 3619 2267 
Q 3247 1863 2275 1863 
L 1100 1863 
L 1100 0 
L 494 0 
z
M 1100 2403 
L 2284 2403 
Q 2872 2403 3119 2622 
Q 3366 2841 3366 3238 
Q 3366 3525 3220 3729 
Q 3075 3934 2838 4000 
Q 2684 4041 2272 4041 
L 1100 4041 
L 1100 2403 
z
" transform="scale(0.015625)"/>
       <path id="ArialMT-72" d="M 416 0 
L 416 3319 
L 922 3319 
L 922 2816 
Q 1116 3169 1280 3281 
Q 1444 3394 1641 3394 
Q 1925 3394 2219 3213 
L 2025 2691 
Q 1819 2813 1613 2813 
Q 1428 2813 1281 2702 
Q 1134 2591 1072 2394 
Q 978 2094 978 1738 
L 978 0 
L 416 0 
z
" transform="scale(0.015625)"/>
       <path id="ArialMT-6d" d="M 422 0 
L 422 3319 
L 925 3319 
L 925 2853 
Q 1081 3097 1340 3245 
Q 1600 3394 1931 3394 
Q 2300 3394 2536 3241 
Q 2772 3088 2869 2813 
Q 3263 3394 3894 3394 
Q 4388 3394 4653 3120 
Q 4919 2847 4919 2278 
L 4919 0 
L 4359 0 
L 4359 2091 
Q 4359 2428 4304 2576 
Q 4250 2725 4106 2815 
Q 3963 2906 3769 2906 
Q 3419 2906 3187 2673 
Q 2956 2441 2956 1928 
L 2956 0 
L 2394 0 
L 2394 2156 
Q 2394 2531 2256 2718 
Q 2119 2906 1806 2906 
Q 1569 2906 1367 2781 
Q 1166 2656 1075 2415 
Q 984 2175 984 1722 
L 984 0 
L 422 0 
z
" transform="scale(0.015625)"/>
       <path id="ArialMT-44" d="M 494 0 
L 494 4581 
L 2072 4581 
Q 2606 4581 2888 4516 
Q 3281 4425 3559 4188 
Q 3922 3881 4101 3404 
Q 4281 2928 4281 2316 
Q 4281 1794 4159 1391 
Q 4038 988 3847 723 
Q 3656 459 3429 307 
Q 3203 156 2883 78 
Q 2563 0 2147 0 
L 494 0 
z
M 1100 541 
L 2078 541 
Q 2531 541 2789 625 
Q 3047 709 3200 863 
Q 3416 1078 3536 1442 
Q 3656 1806 3656 2325 
Q 3656 3044 3420 3430 
Q 3184 3816 2847 3947 
Q 2603 4041 2063 4041 
L 1100 4041 
L 1100 541 
z
" transform="scale(0.015625)"/>
      </defs>
      <use xlink:href="#ArialMT-50"/>
      <use xlink:href="#ArialMT-65" transform="translate(66.699219 0)"/>
      <use xlink:href="#ArialMT-70" transform="translate(122.314453 0)"/>
      <use xlink:href="#ArialMT-70" transform="translate(177.929688 0)"/>
      <use xlink:href="#ArialMT-65" transform="translate(233.544922 0)"/>
      <use xlink:href="#ArialMT-72" transform="translate(289.160156 0)"/>
      <use xlink:href="#ArialMT-6d" transform="translate(322.460938 0)"/>
      <use xlink:href="#ArialMT-69" transform="translate(405.761719 0)"/>
      <use xlink:href="#ArialMT-6e" transform="translate(427.978516 0)"/>
      <use xlink:href="#ArialMT-74" transform="translate(483.59375 0)"/>
      <use xlink:href="#ArialMT-20" transform="translate(511.376953 0)"/>
      <use xlink:href="#ArialMT-44" transform="translate(539.160156 0)"/>
      <use xlink:href="#ArialMT-72" transform="translate(611.376953 0)"/>
      <use xlink:href="#ArialMT-65" transform="translate(644.677734 0)"/>
      <use xlink:href="#ArialMT-61" transform="translate(700.292969 0)"/>
      <use xlink:href="#ArialMT-6d" transform="translate(755.908203 0)"/>
     </g>
    </g>
    <g id="line2d_21">
     <path d="M 672.904175 121.524812 
L 682.904175 121.524812 
L 692.904175 121.524812 
" style="fill: none; stroke: #f39c12; stroke-opacity: 0.8; stroke-width: 2; stroke-linecap: round"/>
     <g>
      <use xlink:href="#mccc799da4a" x="682.904175" y="121.524812" style="fill: #f39c12; fill-opacity: 0.8"/>
     </g>
    </g>
    <g id="text_14">
     <!-- Salted Caramel Swirl -->
     <g style="fill: #262626" transform="translate(700.904175 125.024812) scale(0.1 -0.1)">
      <defs>
       <path id="ArialMT-64" d="M 2575 0 
L 2575 419 
Q 2259 -75 1647 -75 
Q 1250 -75 917 144 
Q 584 363 401 755 
Q 219 1147 219 1656 
Q 219 2153 384 2558 
Q 550 2963 881 3178 
Q 1213 3394 1622 3394 
Q 1922 3394 2156 3267 
Q 2391 3141 2538 2938 
L 2538 4581 
L 3097 4581 
L 3097 0 
L 2575 0 
z
M 797 1656 
Q 797 1019 1065 703 
Q 1334 388 1700 388 
Q 2069 388 2326 689 
Q 2584 991 2584 1609 
Q 2584 2291 2321 2609 
Q 2059 2928 1675 2928 
Q 1300 2928 1048 2622 
Q 797 2316 797 1656 
z
" transform="scale(0.015625)"/>
      </defs>
      <use xlink:href="#ArialMT-53"/>
      <use xlink:href="#ArialMT-61" transform="translate(66.699219 0)"/>
      <use xlink:href="#ArialMT-6c" transform="translate(122.314453 0)"/>
      <use xlink:href="#ArialMT-74" transform="translate(144.53125 0)"/>
      <use xlink:href="#ArialMT-65" transform="translate(172.314453 0)"/>
      <use xlink:href="#ArialMT-64" transform="translate(227.929688 0)"/>
      <use xlink:href="#ArialMT-20" transform="translate(283.544922 0)"/>
      <use xlink:href="#ArialMT-43" transform="translate(311.328125 0)"/>
      <use xlink:href="#ArialMT-61" transform="translate(383.544922 0)"/>
      <use xlink:href="#ArialMT-72" transform="translate(439.160156 0)"/>
      <use xlink:href="#ArialMT-61" transform="translate(472.460938 0)"/>
      <use xlink:href="#ArialMT-6d" transform="translate(528.076172 0)"/>
      <use xlink:href="#ArialMT-65" transform="translate(611.376953 0)"/>
      <use xlink:href="#ArialMT-6c" transform="translate(666.992188 0)"/>
      <use xlink:href="#ArialMT-20" transform="translate(689.208984 0)"/>
      <use xlink:href="#ArialMT-53" transform="translate(716.992188 0)"/>
      <use xlink:href="#ArialMT-77" transform="translate(783.691406 0)"/>
      <use xlink:href="#ArialMT-69" transform="translate(855.908203 0)"/>
      <use xlink:href="#ArialMT-72" transform="translate(878.125 0)"/>
      <use xlink:href="#ArialMT-6c" transform="translate(911.425781 0)"/>
     </g>
    </g>
    <g id="line2d_22">
     <path d="M 672.904175 135.670125 
L 682.904175 135.670125 
L 692.904175 135.670125 
" style="fill: none; stroke: #ffd700; stroke-width: 4; stroke-linecap: round"/>
     <g>
      <use xlink:href="#m33b04c34b5" x="682.904175" y="135.670125" style="fill: #ffd700"/>
     </g>
    </g>
    <g id="text_15">
     <!-- Dark Chocolate Decadence  -->
     <g style="fill: #262626" transform="translate(700.904175 139.170125) scale(0.1 -0.1)">
      <defs>
       <path id="ArialMT-6b" d="M 425 0 
L 425 4581 
L 988 4581 
L 988 1969 
L 2319 3319 
L 3047 3319 
L 1778 2088 
L 3175 0 
L 2481 0 
L 1384 1697 
L 988 1316 
L 988 0 
L 425 0 
z
" transform="scale(0.015625)"/>
       <path id="ArialMT-1f451" d="M 800 0 
L 800 4000 
L 4000 4000 
L 4000 0 
L 800 0 
z
M 900 100 
L 3900 100 
L 3900 3900 
L 900 3900 
L 900 100 
z
" transform="scale(0.015625)"/>
      </defs>
      <use xlink:href="#ArialMT-44"/>
      <use xlink:href="#ArialMT-61" transform="translate(72.216797 0)"/>
      <use xlink:href="#ArialMT-72" transform="translate(127.832031 0)"/>
      <use xlink:href="#ArialMT-6b" transform="translate(161.132812 0)"/>
      <use xlink:href="#ArialMT-20" transform="translate(211.132812 0)"/>
      <use xlink:href="#ArialMT-43" transform="translate(238.916016 0)"/>
      <use xlink:href="#ArialMT-68" transform="translate(311.132812 0)"/>
      <use xlink:href="#ArialMT-6f" transform="translate(366.748047 0)"/>
      <use xlink:href="#ArialMT-63" transform="translate(422.363281 0)"/>
      <use xlink:href="#ArialMT-6f" transform="translate(472.363281 0)"/>
      <use xlink:href="#ArialMT-6c" transform="translate(527.978516 0)"/>
      <use xlink:href="#ArialMT-61" transform="translate(550.195312 0)"/>
      <use xlink:href="#ArialMT-74" transform="translate(605.810547 0)"/>
      <use xlink:href="#ArialMT-65" transform="translate(633.59375 0)"/>
      <use xlink:href="#ArialMT-20" transform="translate(689.208984 0)"/>
      <use xlink:href="#ArialMT-44" transform="translate(716.992188 0)"/>
      <use xlink:href="#ArialMT-65" transform="translate(789.208984 0)"/>
      <use xlink:href="#ArialMT-63" transform="translate(844.824219 0)"/>
      <use xlink:href="#ArialMT-61" transform="translate(894.824219 0)"/>
      <use xlink:href="#ArialMT-64" transform="translate(950.439453 0)"/>
      <use xlink:href="#ArialMT-65" transform="translate(1006.054688 0)"/>
      <use xlink:href="#ArialMT-6e" transform="translate(1061.669922 0)"/>
      <use xlink:href="#ArialMT-63" transform="translate(1117.285156 0)"/>
      <use xlink:href="#ArialMT-65" transform="translate(1167.285156 0)"/>
      <use xlink:href="#ArialMT-20" transform="translate(1222.900391 0)"/>
      <use xlink:href="#ArialMT-1f451" transform="translate(1250.683594 0)"/>
     </g>
    </g>
    <g id="line2d_23">
     <path d="M 672.904175 149.815438 
L 682.904175 149.815438 
L 692.904175 149.815438 
" style="fill: none; stroke: #1abc9c; stroke-opacity: 0.8; stroke-width: 2; stroke-linecap: round"/>
     <g>
      <use xlink:href="#mf750fe4719" x="682.904175" y="149.815438" style="fill: #1abc9c; fill-opacity: 0.8"/>
     </g>
    </g>
    <g id="text_16">
     <!-- White Chocolate Wonder -->
     <g style="fill: #262626" transform="translate(700.904175 153.315438) scale(0.1 -0.1)">
      <defs>
       <path id="ArialMT-57" d="M 1294 0 
L 78 4581 
L 700 4581 
L 1397 1578 
Q 1509 1106 1591 641 
Q 1766 1375 1797 1488 
L 2669 4581 
L 3400 4581 
L 4056 2263 
Q 4303 1400 4413 641 
Q 4500 1075 4641 1638 
L 5359 4581 
L 5969 4581 
L 4713 0 
L 4128 0 
L 3163 3491 
Q 3041 3928 3019 4028 
Q 2947 3713 2884 3491 
L 1913 0 
L 1294 0 
z
" transform="scale(0.015625)"/>
      </defs>
      <use xlink:href="#ArialMT-57"/>
      <use xlink:href="#ArialMT-68" transform="translate(94.384766 0)"/>
      <use xlink:href="#ArialMT-69" transform="translate(150 0)"/>
      <use xlink:href="#ArialMT-74" transform="translate(172.216797 0)"/>
      <use xlink:href="#ArialMT-65" transform="translate(200 0)"/>
      <use xlink:href="#ArialMT-20" transform="translate(255.615234 0)"/>
      <use xlink:href="#ArialMT-43" transform="translate(283.398438 0)"/>
      <use xlink:href="#ArialMT-68" transform="translate(355.615234 0)"/>
      <use xlink:href="#ArialMT-6f" transform="translate(411.230469 0)"/>
      <use xlink:href="#ArialMT-63" transform="translate(466.845703 0)"/>
      <use xlink:href="#ArialMT-6f" transform="translate(516.845703 0)"/>
      <use xlink:href="#ArialMT-6c" transform="translate(572.460938 0)"/>
      <use xlink:href="#ArialMT-61" transform="translate(594.677734 0)"/>
      <use xlink:href="#ArialMT-74" transform="translate(650.292969 0)"/>
      <use xlink:href="#ArialMT-65" transform="translate(678.076172 0)"/>
      <use xlink:href="#ArialMT-20" transform="translate(733.691406 0)"/>
      <use xlink:href="#ArialMT-57" transform="translate(761.474609 0)"/>
      <use xlink:href="#ArialMT-6f" transform="translate(854.109375 0)"/>
      <use xlink:href="#ArialMT-6e" transform="translate(909.724609 0)"/>
      <use xlink:href="#ArialMT-64" transform="translate(965.339844 0)"/>
      <use xlink:href="#ArialMT-65" transform="translate(1020.955078 0)"/>
      <use xlink:href="#ArialMT-72" transform="translate(1076.570312 0)"/>
     </g>
    </g>
    <g id="line2d_24">
     <path d="M 672.904175 163.96075 
L 682.904175 163.96075 
L 692.904175 163.96075 
" style="fill: none; stroke: #e67e22; stroke-opacity: 0.8; stroke-width: 2; stroke-linecap: round"/>
     <g>
      <use xlink:href="#mae21909044" x="682.904175" y="163.96075" style="fill: #e67e22; fill-opacity: 0.8"/>
     </g>
    </g>
    <g id="text_17">
     <!-- Cinnamon Fireside -->
     <g style="fill: #262626" transform="translate(700.904175 167.46075) scale(0.1 -0.1)">
      <defs>
       <path id="ArialMT-46" d="M 525 0 
L 525 4581 
L 3616 4581 
L 3616 4041 
L 1131 4041 
L 1131 2622 
L 3281 2622 
L 3281 2081 
L 1131 2081 
L 1131 0 
L 525 0 
z
" transform="scale(0.015625)"/>
      </defs>
      <use xlink:href="#ArialMT-43"/>
      <use xlink:href="#ArialMT-69" transform="translate(72.216797 0)"/>
      <use xlink:href="#ArialMT-6e" transform="translate(94.433594 0)"/>
      <use xlink:href="#ArialMT-6e" transform="translate(150.048828 0)"/>
      <use xlink:href="#ArialMT-61" transform="translate(205.664062 0)"/>
      <use xlink:href="#ArialMT-6d" transform="translate(261.279297 0)"/>
      <use xlink:href="#ArialMT-6f" transform="translate(344.580078 0)"/>
      <use xlink:href="#ArialMT-6e" transform="translate(400.195312 0)"/>
      <use xlink:href="#ArialMT-20" transform="translate(455.810547 0)"/>
      <use xlink:href="#ArialMT-46" transform="translate(483.59375 0)"/>
      <use xlink:href="#ArialMT-69" transform="translate(544.677734 0)"/>
      <use xlink:href="#ArialMT-72" transform="translate(566.894531 0)"/>
      <use xlink:href="#ArialMT-65" transform="translate(600.195312 0)"/>
      <use xlink:href="#ArialMT-73" transform="translate(655.810547 0)"/>
      <use xlink:href="#ArialMT-69" transform="translate(705.810547 0)"/>
      <use xlink:href="#ArialMT-64" transform="translate(728.027344 0)"/>
      <use xlink:href="#ArialMT-65" transform="translate(783.642578 0)"/>
     </g>
    </g>
    <g id="line2d_25">
     <path d="M 672.904175 178.106063 
L 682.904175 178.106063 
L 692.904175 178.106063 
" style="fill: none; stroke: #95a5a6; stroke-opacity: 0.8; stroke-width: 2; stroke-linecap: round"/>
     <g>
      <use xlink:href="#ma7c1f3303e" x="682.904175" y="178.106063" style="fill: #95a5a6; fill-opacity: 0.8"/>
     </g>
    </g>
    <g id="text_18">
     <!-- Hazelnut Heaven -->
     <g style="fill: #262626" transform="translate(700.904175 181.606063) scale(0.1 -0.1)">
      <defs>
       <path id="ArialMT-48" d="M 513 0 
L 513 4581 
L 1119 4581 
L 1119 2700 
L 3500 2700 
L 3500 4581 
L 4106 4581 
L 4106 0 
L 3500 0 
L 3500 2159 
L 1119 2159 
L 1119 0 
L 513 0 
z
" transform="scale(0.015625)"/>
       <path id="ArialMT-7a" d="M 125 0 
L 125 456 
L 2238 2881 
Q 1878 2863 1603 2863 
L 250 2863 
L 250 3319 
L 2963 3319 
L 2963 2947 
L 1166 841 
L 819 456 
Q 1197 484 1528 484 
L 3063 484 
L 3063 0 
L 125 0 
z
" transform="scale(0.015625)"/>
       <path id="ArialMT-75" d="M 2597 0 
L 2597 488 
Q 2209 -75 1544 -75 
Q 1250 -75 995 37 
Q 741 150 617 320 
Q 494 491 444 738 
Q 409 903 409 1263 
L 409 3319 
L 972 3319 
L 972 1478 
Q 972 1038 1006 884 
Q 1059 663 1231 536 
Q 1403 409 1656 409 
Q 1909 409 2131 539 
Q 2353 669 2445 892 
Q 2538 1116 2538 1541 
L 2538 3319 
L 3100 3319 
L 3100 0 
L 2597 0 
z
" transform="scale(0.015625)"/>
      </defs>
      <use xlink:href="#ArialMT-48"/>
      <use xlink:href="#ArialMT-61" transform="translate(72.216797 0)"/>
      <use xlink:href="#ArialMT-7a" transform="translate(127.832031 0)"/>
      <use xlink:href="#ArialMT-65" transform="translate(177.832031 0)"/>
      <use xlink:href="#ArialMT-6c" transform="translate(233.447266 0)"/>
      <use xlink:href="#ArialMT-6e" transform="translate(255.664062 0)"/>
      <use xlink:href="#ArialMT-75" transform="translate(311.279297 0)"/>
      <use xlink:href="#ArialMT-74" transform="translate(366.894531 0)"/>
      <use xlink:href="#ArialMT-20" transform="translate(394.677734 0)"/>
      <use xlink:href="#ArialMT-48" transform="translate(422.460938 0)"/>
      <use xlink:href="#ArialMT-65" transform="translate(494.677734 0)"/>
      <use xlink:href="#ArialMT-61" transform="translate(550.292969 0)"/>
      <use xlink:href="#ArialMT-76" transform="translate(605.908203 0)"/>
      <use xlink:href="#ArialMT-65" transform="translate(655.908203 0)"/>
      <use xlink:href="#ArialMT-6e" transform="translate(711.523438 0)"/>
     </g>
    </g>
   </g>
  </g>
 </g>
 <defs>
  <clipPath id="pc6f85b8f1d">
   <path d="M 659.252562 371.54625 
C 659.252562 331.447497 651.353983 291.738654 636.008854 254.692238 
C 620.663726 217.645821 598.170473 183.982289 569.816373 155.628189 
C 541.462273 127.274089 507.798742 104.780837 470.752325 89.435708 
C 433.705908 74.09058 393.997065 66.192 353.898312 66.192 
C 313.79956 66.192 274.090717 74.09058 237.0443 89.435708 
C 199.997883 104.780837 166.334352 127.274089 137.980252 155.628189 
C 109.626152 183.982289 87.132899 217.645821 71.787771 254.692238 
C 56.442642 291.738654 48.544063 331.447497 48.544063 371.54625 
C 48.544063 411.645003 56.442642 451.353846 71.787771 488.400262 
C 87.132899 525.446679 109.626152 559.110211 137.980252 587.464311 
C 166.334352 615.818411 199.997883 638.311663 237.0443 653.656792 
C 274.090717 669.00192 313.79956 676.9005 353.898312 676.9005 
C 393.997065 676.9005 433.705908 669.00192 470.752325 653.656792 
C 507.798742 638.311663 541.462273 615.818411 569.816373 587.464311 
C 598.170473 559.110211 620.663726 525.446679 636.008854 488.400262 
C 651.353983 451.353846 659.252562 411.645003 659.252562 371.54625 
M 353.898312 371.54625 
C 353.898312 371.54625 353.898312 371.54625 353.898312 371.54625 
C 353.898312 371.54625 353.898312 371.54625 353.898312 371.54625 
C 353.898312 371.54625 353.898312 371.54625 353.898312 371.54625 
C 353.898312 371.54625 353.898312 371.54625 353.898312 371.54625 
C 353.898312 371.54625 353.898312 371.54625 353.898312 371.54625 
C 353.898312 371.54625 353.898312 371.54625 353.898312 371.54625 
C 353.898312 371.54625 353.898312 371.54625 353.898312 371.54625 
C 353.898312 371.54625 353.898312 371.54625 353.898312 371.54625 
C 353.898312 371.54625 353.898312 371.54625 353.898312 371.54625 
C 353.898312 371.54625 353.898312 371.54625 353.898312 371.54625 
C 353.898312 371.54625 353.898312 371.54625 353.898312 371.54625 
C 353.898312 371.54625 353.898312 371.54625 353.898312 371.54625 
C 353.898312 371.54625 353.898312 371.54625 353.898312 371.54625 
C 353.898312 371.54625 353.898312 371.54625 353.898312 371.54625 
C 353.898312 371.54625 353.898312 371.54625 353.898312 371.54625 
C 353.898312 371.54625 353.898312 371.54625 353.898312 371.54625 
z
"/>
  </clipPath>
 </defs>
</svg>
